<?xml version="1.0" encoding="UTF-8" standalone="no"?>
<!DOCTYPE svg PUBLIC "-//W3C//DTD SVG 1.1//EN"
 "http://www.w3.org/Graphics/SVG/1.1/DTD/svg11.dtd">
<!-- Generated by graphviz version 3.0.0 (20220226.1711)
 -->
<!-- Title: Color Pages: 1 -->
<svg width="649pt" height="742pt"
 viewBox="0.00 0.00 649.20 741.73" xmlns="http://www.w3.org/2000/svg" xmlns:xlink="http://www.w3.org/1999/xlink">
<g id="graph0" class="graph" transform="scale(1 1) rotate(0) translate(4 737.73)">
<title>Color</title>
<polygon fill="transparent" stroke="transparent" points="-4,4 -4,-737.73 645.2,-737.73 645.2,4 -4,4"/>
<text text-anchor="middle" x="320.6" y="-9.2" font-family="Times New Roman,serif" font-size="16.00" fill="grey">Color</text>
<!-- 0 -->
<g id="node1" class="node">
<title>0</title>
<ellipse fill="#ffffff" stroke="grey" cx="122.5" cy="-40.5" rx="14.5" ry="14.5"/>
<text text-anchor="middle" x="122.5" y="-36.8" font-family="Times New Roman,serif" font-size="14.00">0</text>
</g>
<!-- 1 -->
<g id="node2" class="node">
<title>1</title>
<ellipse fill="#ff9900" stroke="grey" cx="166.9" cy="-97.18" rx="14.5" ry="14.5"/>
<text text-anchor="middle" x="166.9" y="-93.48" font-family="Times New Roman,serif" font-size="14.00">1</text>
</g>
<!-- 0&#45;&#45;1 -->
<g id="edge1" class="edge">
<title>0&#45;&#45;1</title>
<path fill="none" stroke="grey" d="M131.49,-51.97C139.19,-61.8 150.23,-75.9 157.93,-85.73"/>
</g>
<!-- 2 -->
<g id="node3" class="node">
<title>2</title>
<ellipse fill="#ffffff" stroke="grey" cx="602.5" cy="-148.5" rx="14.5" ry="14.5"/>
<text text-anchor="middle" x="602.5" y="-144.8" font-family="Times New Roman,serif" font-size="14.00">2</text>
</g>
<!-- 3 -->
<g id="node4" class="node">
<title>3</title>
<ellipse fill="#ffffff" stroke="grey" cx="50.5" cy="-292.5" rx="14.5" ry="14.5"/>
<text text-anchor="middle" x="50.5" y="-288.8" font-family="Times New Roman,serif" font-size="14.00">3</text>
</g>
<!-- 4 -->
<g id="node5" class="node">
<title>4</title>
<ellipse fill="#ff9900" stroke="grey" cx="85.41" cy="-355.3" rx="14.5" ry="14.5"/>
<text text-anchor="middle" x="85.41" y="-351.6" font-family="Times New Roman,serif" font-size="14.00">4</text>
</g>
<!-- 3&#45;&#45;4 -->
<g id="edge2" class="edge">
<title>3&#45;&#45;4</title>
<path fill="none" stroke="grey" d="M57.56,-305.21C63.62,-316.1 72.3,-331.72 78.36,-342.61"/>
</g>
<!-- 5 -->
<g id="node6" class="node">
<title>5</title>
<ellipse fill="#9dff00" stroke="grey" cx="122.7" cy="-293.78" rx="14.5" ry="14.5"/>
<text text-anchor="middle" x="122.7" y="-290.08" font-family="Times New Roman,serif" font-size="14.00">5</text>
</g>
<!-- 3&#45;&#45;5 -->
<g id="edge3" class="edge">
<title>3&#45;&#45;5</title>
<path fill="none" stroke="grey" d="M65.11,-292.76C77.64,-292.98 95.59,-293.3 108.11,-293.52"/>
</g>
<!-- 4&#45;&#45;5 -->
<g id="edge4" class="edge">
<title>4&#45;&#45;5</title>
<path fill="none" stroke="grey" d="M92.96,-342.85C99.42,-332.18 108.7,-316.88 115.16,-306.21"/>
</g>
<!-- 6 -->
<g id="node7" class="node">
<title>6</title>
<ellipse fill="#ffffff" stroke="grey" cx="590.5" cy="-268.5" rx="14.5" ry="14.5"/>
<text text-anchor="middle" x="590.5" y="-264.8" font-family="Times New Roman,serif" font-size="14.00">6</text>
</g>
<!-- 7 -->
<g id="node8" class="node">
<title>7</title>
<ellipse fill="#ffffff" stroke="grey" cx="422.5" cy="-275.73" rx="14.5" ry="14.5"/>
<text text-anchor="middle" x="422.5" y="-272.03" font-family="Times New Roman,serif" font-size="14.00">7</text>
</g>
<!-- 8 -->
<g id="node9" class="node">
<title>8</title>
<ellipse fill="#ff9900" stroke="grey" cx="444.95" cy="-307.81" rx="14.5" ry="14.5"/>
<text text-anchor="middle" x="444.95" y="-304.11" font-family="Times New Roman,serif" font-size="14.00">8</text>
</g>
<!-- 7&#45;&#45;8 -->
<g id="edge5" class="edge">
<title>7&#45;&#45;8</title>
<path fill="none" stroke="grey" d="M430.86,-287.68C432.65,-290.24 434.55,-292.96 436.36,-295.53"/>
</g>
<!-- 9 -->
<g id="node10" class="node">
<title>9</title>
<ellipse fill="#9dff00" stroke="grey" cx="431.7" cy="-237.35" rx="14.5" ry="14.5"/>
<text text-anchor="middle" x="431.7" y="-233.65" font-family="Times New Roman,serif" font-size="14.00">9</text>
</g>
<!-- 7&#45;&#45;9 -->
<g id="edge6" class="edge">
<title>7&#45;&#45;9</title>
<path fill="none" stroke="grey" d="M425.93,-261.44C426.7,-258.2 427.53,-254.76 428.3,-251.53"/>
</g>
<!-- 10 -->
<g id="node11" class="node">
<title>10</title>
<ellipse fill="#00ff26" stroke="grey" cx="484.17" cy="-312.3" rx="14.5" ry="14.5"/>
<text text-anchor="middle" x="484.17" y="-308.6" font-family="Times New Roman,serif" font-size="14.00">10</text>
</g>
<!-- 7&#45;&#45;10 -->
<g id="edge7" class="edge">
<title>7&#45;&#45;10</title>
<path fill="none" stroke="grey" d="M434.98,-283.13C445.54,-289.39 460.61,-298.33 471.28,-304.66"/>
</g>
<!-- 11 -->
<g id="node12" class="node">
<title>11</title>
<ellipse fill="#00ffed" stroke="grey" cx="541.48" cy="-289.46" rx="14.5" ry="14.5"/>
<text text-anchor="middle" x="541.48" y="-285.76" font-family="Times New Roman,serif" font-size="14.00">11</text>
</g>
<!-- 7&#45;&#45;11 -->
<g id="edge8" class="edge">
<title>7&#45;&#45;11</title>
<path fill="none" stroke="grey" d="M437.09,-277.42C459.92,-280.05 503.86,-285.12 526.77,-287.76"/>
</g>
<!-- 12 -->
<g id="node13" class="node">
<title>12</title>
<ellipse fill="#004eff" stroke="grey" cx="490.01" cy="-252.37" rx="14.5" ry="14.5"/>
<text text-anchor="middle" x="490.01" y="-248.67" font-family="Times New Roman,serif" font-size="14.00">12</text>
</g>
<!-- 7&#45;&#45;12 -->
<g id="edge9" class="edge">
<title>7&#45;&#45;12</title>
<path fill="none" stroke="grey" d="M436.49,-270.89C448.08,-266.88 464.46,-261.21 476.04,-257.2"/>
</g>
<!-- 13 -->
<g id="node14" class="node">
<title>13</title>
<ellipse fill="#7b00ff" stroke="grey" cx="477.42" cy="-208.5" rx="14.5" ry="14.5"/>
<text text-anchor="middle" x="477.42" y="-204.8" font-family="Times New Roman,serif" font-size="14.00">13</text>
</g>
<!-- 7&#45;&#45;13 -->
<g id="edge10" class="edge">
<title>7&#45;&#45;13</title>
<path fill="none" stroke="grey" d="M431.82,-264.33C441.98,-251.89 458.13,-232.11 468.24,-219.74"/>
</g>
<!-- 8&#45;&#45;9 -->
<g id="edge11" class="edge">
<title>8&#45;&#45;9</title>
<path fill="none" stroke="grey" d="M442.27,-293.55C440,-281.48 436.76,-264.26 434.47,-252.07"/>
</g>
<!-- 8&#45;&#45;10 -->
<g id="edge12" class="edge">
<title>8&#45;&#45;10</title>
<path fill="none" stroke="grey" d="M459.55,-309.48C462.86,-309.86 466.38,-310.26 469.68,-310.64"/>
</g>
<!-- 8&#45;&#45;11 -->
<g id="edge13" class="edge">
<title>8&#45;&#45;11</title>
<path fill="none" stroke="grey" d="M459.61,-305.02C477.86,-301.55 508.83,-295.66 527,-292.21"/>
</g>
<!-- 8&#45;&#45;12 -->
<g id="edge14" class="edge">
<title>8&#45;&#45;12</title>
<path fill="none" stroke="grey" d="M454.29,-296.32C462.02,-286.8 472.96,-273.35 480.69,-263.84"/>
</g>
<!-- 8&#45;&#45;13 -->
<g id="edge15" class="edge">
<title>8&#45;&#45;13</title>
<path fill="none" stroke="grey" d="M449.46,-294C455.63,-275.13 466.63,-241.48 472.84,-222.51"/>
</g>
<!-- 9&#45;&#45;10 -->
<g id="edge16" class="edge">
<title>9&#45;&#45;10</title>
<path fill="none" stroke="grey" d="M440.13,-249.39C449.86,-263.29 465.78,-286.04 475.58,-300.04"/>
</g>
<!-- 9&#45;&#45;11 -->
<g id="edge17" class="edge">
<title>9&#45;&#45;11</title>
<path fill="none" stroke="grey" d="M445.16,-243.74C466.34,-253.79 507.21,-273.19 528.25,-283.18"/>
</g>
<!-- 9&#45;&#45;12 -->
<g id="edge18" class="edge">
<title>9&#45;&#45;12</title>
<path fill="none" stroke="grey" d="M445.82,-240.98C454.85,-243.31 466.54,-246.32 475.62,-248.66"/>
</g>
<!-- 9&#45;&#45;13 -->
<g id="edge19" class="edge">
<title>9&#45;&#45;13</title>
<path fill="none" stroke="grey" d="M444.19,-229.46C450.64,-225.39 458.49,-220.44 464.94,-216.37"/>
</g>
<!-- 10&#45;&#45;11 -->
<g id="edge20" class="edge">
<title>10&#45;&#45;11</title>
<path fill="none" stroke="grey" d="M497.75,-306.89C506.88,-303.25 518.88,-298.47 527.99,-294.83"/>
</g>
<!-- 10&#45;&#45;12 -->
<g id="edge21" class="edge">
<title>10&#45;&#45;12</title>
<path fill="none" stroke="grey" d="M485.58,-297.79C486.49,-288.51 487.66,-276.5 488.57,-267.16"/>
</g>
<!-- 10&#45;&#45;13 -->
<g id="edge22" class="edge">
<title>10&#45;&#45;13</title>
<path fill="none" stroke="grey" d="M483.2,-297.43C481.91,-277.58 479.64,-242.67 478.36,-223.01"/>
</g>
<!-- 11&#45;&#45;12 -->
<g id="edge23" class="edge">
<title>11&#45;&#45;12</title>
<path fill="none" stroke="grey" d="M529.54,-280.86C521.23,-274.86 510.19,-266.91 501.89,-260.92"/>
</g>
<!-- 11&#45;&#45;13 -->
<g id="edge24" class="edge">
<title>11&#45;&#45;13</title>
<path fill="none" stroke="grey" d="M532.3,-277.86C520.12,-262.47 498.75,-235.46 486.58,-220.08"/>
</g>
<!-- 14 -->
<g id="node15" class="node">
<title>14</title>
<ellipse fill="#ffffff" stroke="grey" cx="551.72" cy="-209.18" rx="14.5" ry="14.5"/>
<text text-anchor="middle" x="551.72" y="-205.48" font-family="Times New Roman,serif" font-size="14.00">14</text>
</g>
<!-- 11&#45;&#45;14 -->
<g id="edge25" class="edge">
<title>11&#45;&#45;14</title>
<path fill="none" stroke="grey" d="M543.36,-274.73C545.21,-260.25 548.01,-238.26 549.86,-223.81"/>
</g>
<!-- 12&#45;&#45;13 -->
<g id="edge26" class="edge">
<title>12&#45;&#45;13</title>
<path fill="none" stroke="grey" d="M485.89,-238C484.45,-233.01 482.85,-227.41 481.42,-222.45"/>
</g>
<!-- 12&#45;&#45;14 -->
<g id="edge27" class="edge">
<title>12&#45;&#45;14</title>
<path fill="none" stroke="grey" d="M501.91,-244.04C512.7,-236.49 528.53,-225.41 539.44,-217.77"/>
</g>
<!-- 13&#45;&#45;14 -->
<g id="edge28" class="edge">
<title>13&#45;&#45;14</title>
<path fill="none" stroke="grey" d="M492.1,-208.63C505.12,-208.75 524.06,-208.92 537.07,-209.04"/>
</g>
<!-- 15 -->
<g id="node16" class="node">
<title>15</title>
<ellipse fill="#ffffff" stroke="grey" cx="50.5" cy="-124.5" rx="14.5" ry="14.5"/>
<text text-anchor="middle" x="50.5" y="-120.8" font-family="Times New Roman,serif" font-size="14.00">15</text>
</g>
<!-- 16 -->
<g id="node17" class="node">
<title>16</title>
<ellipse fill="#ff9900" stroke="grey" cx="94.9" cy="-181.18" rx="14.5" ry="14.5"/>
<text text-anchor="middle" x="94.9" y="-177.48" font-family="Times New Roman,serif" font-size="14.00">16</text>
</g>
<!-- 15&#45;&#45;16 -->
<g id="edge29" class="edge">
<title>15&#45;&#45;16</title>
<path fill="none" stroke="grey" d="M59.49,-135.97C67.19,-145.8 78.23,-159.9 85.93,-169.73"/>
</g>
<!-- 17 -->
<g id="node18" class="node">
<title>17</title>
<ellipse fill="#ffffff" stroke="grey" cx="506.5" cy="-88.5" rx="14.5" ry="14.5"/>
<text text-anchor="middle" x="506.5" y="-84.8" font-family="Times New Roman,serif" font-size="14.00">17</text>
</g>
<!-- 18 -->
<g id="node19" class="node">
<title>18</title>
<ellipse fill="#ff9900" stroke="grey" cx="541.41" cy="-151.3" rx="14.5" ry="14.5"/>
<text text-anchor="middle" x="541.41" y="-147.6" font-family="Times New Roman,serif" font-size="14.00">18</text>
</g>
<!-- 17&#45;&#45;18 -->
<g id="edge30" class="edge">
<title>17&#45;&#45;18</title>
<path fill="none" stroke="grey" d="M513.56,-101.21C519.62,-112.1 528.3,-127.72 534.36,-138.61"/>
</g>
<!-- 19 -->
<g id="node20" class="node">
<title>19</title>
<ellipse fill="#9dff00" stroke="grey" cx="578.7" cy="-89.78" rx="14.5" ry="14.5"/>
<text text-anchor="middle" x="578.7" y="-86.08" font-family="Times New Roman,serif" font-size="14.00">19</text>
</g>
<!-- 17&#45;&#45;19 -->
<g id="edge31" class="edge">
<title>17&#45;&#45;19</title>
<path fill="none" stroke="grey" d="M521.11,-88.76C533.64,-88.98 551.59,-89.3 564.11,-89.52"/>
</g>
<!-- 18&#45;&#45;19 -->
<g id="edge32" class="edge">
<title>18&#45;&#45;19</title>
<path fill="none" stroke="grey" d="M548.96,-138.85C555.42,-128.18 564.7,-112.88 571.16,-102.21"/>
</g>
<!-- 20 -->
<g id="node21" class="node">
<title>20</title>
<ellipse fill="#ffffff" stroke="grey" cx="374.5" cy="-719.23" rx="14.5" ry="14.5"/>
<text text-anchor="middle" x="374.5" y="-715.53" font-family="Times New Roman,serif" font-size="14.00">20</text>
</g>
<!-- 21 -->
<g id="node22" class="node">
<title>21</title>
<ellipse fill="#ff9900" stroke="grey" cx="413.84" cy="-656.86" rx="14.5" ry="14.5"/>
<text text-anchor="middle" x="413.84" y="-653.16" font-family="Times New Roman,serif" font-size="14.00">21</text>
</g>
<!-- 20&#45;&#45;21 -->
<g id="edge33" class="edge">
<title>20&#45;&#45;21</title>
<path fill="none" stroke="grey" d="M382.27,-706.9C389.17,-695.97 399.19,-680.08 406.08,-669.15"/>
</g>
<!-- 22 -->
<g id="node23" class="node">
<title>22</title>
<ellipse fill="#ffffff" stroke="grey" cx="414.2" cy="-580.9" rx="14.5" ry="14.5"/>
<text text-anchor="middle" x="414.2" y="-577.2" font-family="Times New Roman,serif" font-size="14.00">22</text>
</g>
<!-- 21&#45;&#45;22 -->
<g id="edge34" class="edge">
<title>21&#45;&#45;22</title>
<path fill="none" stroke="grey" d="M413.91,-642.21C413.97,-628.76 414.07,-608.93 414.13,-595.5"/>
</g>
<!-- 23 -->
<g id="node24" class="node">
<title>23</title>
<ellipse fill="#9dff00" stroke="grey" cx="473.78" cy="-610.46" rx="14.5" ry="14.5"/>
<text text-anchor="middle" x="473.78" y="-606.76" font-family="Times New Roman,serif" font-size="14.00">23</text>
</g>
<!-- 21&#45;&#45;23 -->
<g id="edge35" class="edge">
<title>21&#45;&#45;23</title>
<path fill="none" stroke="grey" d="M425.4,-647.91C436.01,-639.69 451.66,-627.58 462.26,-619.38"/>
</g>
<!-- 22&#45;&#45;23 -->
<g id="edge36" class="edge">
<title>22&#45;&#45;23</title>
<path fill="none" stroke="grey" d="M427.42,-587.46C437.3,-592.36 450.73,-599.02 460.59,-603.91"/>
</g>
<!-- 24 -->
<g id="node25" class="node">
<title>24</title>
<ellipse fill="#ff9900" stroke="grey" cx="474.88" cy="-533.28" rx="14.5" ry="14.5"/>
<text text-anchor="middle" x="474.88" y="-529.58" font-family="Times New Roman,serif" font-size="14.00">24</text>
</g>
<!-- 22&#45;&#45;24 -->
<g id="edge37" class="edge">
<title>22&#45;&#45;24</title>
<path fill="none" stroke="grey" d="M425.61,-571.94C436.33,-563.53 452.28,-551.02 463.11,-542.52"/>
</g>
<!-- 23&#45;&#45;24 -->
<g id="edge38" class="edge">
<title>23&#45;&#45;24</title>
<path fill="none" stroke="grey" d="M473.99,-595.94C474.18,-582.23 474.48,-561.77 474.67,-547.99"/>
</g>
<!-- 25 -->
<g id="node26" class="node">
<title>25</title>
<ellipse fill="#ffffff" stroke="grey" cx="462.28" cy="-455.3" rx="14.5" ry="14.5"/>
<text text-anchor="middle" x="462.28" y="-451.6" font-family="Times New Roman,serif" font-size="14.00">25</text>
</g>
<!-- 24&#45;&#45;25 -->
<g id="edge39" class="edge">
<title>24&#45;&#45;25</title>
<path fill="none" stroke="grey" d="M472.51,-518.61C470.24,-504.58 466.84,-483.55 464.59,-469.63"/>
</g>
<!-- 26 -->
<g id="node27" class="node">
<title>26</title>
<ellipse fill="#9dff00" stroke="grey" cx="542.72" cy="-493.27" rx="14.5" ry="14.5"/>
<text text-anchor="middle" x="542.72" y="-489.57" font-family="Times New Roman,serif" font-size="14.00">26</text>
</g>
<!-- 24&#45;&#45;26 -->
<g id="edge40" class="edge">
<title>24&#45;&#45;26</title>
<path fill="none" stroke="grey" d="M487.64,-525.75C499.77,-518.6 517.91,-507.9 530.02,-500.76"/>
</g>
<!-- 27 -->
<g id="node28" class="node">
<title>27</title>
<ellipse fill="#00ff26" stroke="grey" cx="504.85" cy="-469.39" rx="14.5" ry="14.5"/>
<text text-anchor="middle" x="504.85" y="-465.69" font-family="Times New Roman,serif" font-size="14.00">27</text>
</g>
<!-- 24&#45;&#45;27 -->
<g id="edge41" class="edge">
<title>24&#45;&#45;27</title>
<path fill="none" stroke="grey" d="M481.09,-520.04C486.24,-509.07 493.51,-493.57 498.65,-482.61"/>
</g>
<!-- 25&#45;&#45;26 -->
<g id="edge42" class="edge">
<title>25&#45;&#45;26</title>
<path fill="none" stroke="grey" d="M475.56,-461.57C490.47,-468.6 514.51,-479.95 529.42,-486.99"/>
</g>
<!-- 25&#45;&#45;27 -->
<g id="edge43" class="edge">
<title>25&#45;&#45;27</title>
<path fill="none" stroke="grey" d="M476.22,-459.91C480.97,-461.48 486.28,-463.24 491.02,-464.81"/>
</g>
<!-- 28 -->
<g id="node29" class="node">
<title>28</title>
<ellipse fill="#ff9900" stroke="grey" cx="531.42" cy="-412.5" rx="14.5" ry="14.5"/>
<text text-anchor="middle" x="531.42" y="-408.8" font-family="Times New Roman,serif" font-size="14.00">28</text>
</g>
<!-- 25&#45;&#45;28 -->
<g id="edge44" class="edge">
<title>25&#45;&#45;28</title>
<path fill="none" stroke="grey" d="M474.64,-447.64C487.07,-439.95 506.14,-428.15 518.7,-420.37"/>
</g>
<!-- 26&#45;&#45;27 -->
<g id="edge45" class="edge">
<title>26&#45;&#45;27</title>
<path fill="none" stroke="grey" d="M530.32,-485.45C526.1,-482.78 521.37,-479.8 517.15,-477.14"/>
</g>
<!-- 26&#45;&#45;28 -->
<g id="edge46" class="edge">
<title>26&#45;&#45;28</title>
<path fill="none" stroke="grey" d="M540.7,-478.83C538.66,-464.22 535.51,-441.75 533.46,-427.09"/>
</g>
<!-- 27&#45;&#45;28 -->
<g id="edge47" class="edge">
<title>27&#45;&#45;28</title>
<path fill="none" stroke="grey" d="M511.01,-456.19C515.24,-447.14 520.84,-435.15 525.11,-426.02"/>
</g>
<!-- 29 -->
<g id="node30" class="node">
<title>29</title>
<ellipse fill="#ffffff" stroke="grey" cx="14.5" cy="-484.5" rx="14.5" ry="14.5"/>
<text text-anchor="middle" x="14.5" y="-480.8" font-family="Times New Roman,serif" font-size="14.00">29</text>
</g>
<!-- 30 -->
<g id="node31" class="node">
<title>30</title>
<ellipse fill="#ff9900" stroke="grey" cx="58.9" cy="-541.18" rx="14.5" ry="14.5"/>
<text text-anchor="middle" x="58.9" y="-537.48" font-family="Times New Roman,serif" font-size="14.00">30</text>
</g>
<!-- 29&#45;&#45;30 -->
<g id="edge48" class="edge">
<title>29&#45;&#45;30</title>
<path fill="none" stroke="grey" d="M23.49,-495.97C31.19,-505.8 42.23,-519.9 49.93,-529.73"/>
</g>
<!-- 31 -->
<g id="node32" class="node">
<title>31</title>
<ellipse fill="#ffffff" stroke="grey" cx="374.5" cy="-112.5" rx="14.5" ry="14.5"/>
<text text-anchor="middle" x="374.5" y="-108.8" font-family="Times New Roman,serif" font-size="14.00">31</text>
</g>
<!-- 32 -->
<g id="node33" class="node">
<title>32</title>
<ellipse fill="#ff9900" stroke="grey" cx="409.41" cy="-175.3" rx="14.5" ry="14.5"/>
<text text-anchor="middle" x="409.41" y="-171.6" font-family="Times New Roman,serif" font-size="14.00">32</text>
</g>
<!-- 31&#45;&#45;32 -->
<g id="edge49" class="edge">
<title>31&#45;&#45;32</title>
<path fill="none" stroke="grey" d="M381.56,-125.21C387.62,-136.1 396.3,-151.72 402.36,-162.61"/>
</g>
<!-- 33 -->
<g id="node34" class="node">
<title>33</title>
<ellipse fill="#9dff00" stroke="grey" cx="446.7" cy="-113.78" rx="14.5" ry="14.5"/>
<text text-anchor="middle" x="446.7" y="-110.08" font-family="Times New Roman,serif" font-size="14.00">33</text>
</g>
<!-- 31&#45;&#45;33 -->
<g id="edge50" class="edge">
<title>31&#45;&#45;33</title>
<path fill="none" stroke="grey" d="M389.11,-112.76C401.64,-112.98 419.59,-113.3 432.11,-113.52"/>
</g>
<!-- 32&#45;&#45;33 -->
<g id="edge51" class="edge">
<title>32&#45;&#45;33</title>
<path fill="none" stroke="grey" d="M416.96,-162.85C423.42,-152.18 432.7,-136.88 439.16,-126.21"/>
</g>
<!-- 34 -->
<g id="node35" class="node">
<title>34</title>
<ellipse fill="#ffffff" stroke="grey" cx="422.5" cy="-52.5" rx="14.5" ry="14.5"/>
<text text-anchor="middle" x="422.5" y="-48.8" font-family="Times New Roman,serif" font-size="14.00">34</text>
</g>
<!-- 35 -->
<g id="node36" class="node">
<title>35</title>
<ellipse fill="#ffffff" stroke="grey" cx="302.5" cy="-88.5" rx="14.5" ry="14.5"/>
<text text-anchor="middle" x="302.5" y="-84.8" font-family="Times New Roman,serif" font-size="14.00">35</text>
</g>
<!-- 36 -->
<g id="node37" class="node">
<title>36</title>
<ellipse fill="#ffffff" stroke="grey" cx="26.5" cy="-184.5" rx="14.5" ry="14.5"/>
<text text-anchor="middle" x="26.5" y="-180.8" font-family="Times New Roman,serif" font-size="14.00">36</text>
</g>
<!-- 37 -->
<g id="node38" class="node">
<title>37</title>
<ellipse fill="#ff9900" stroke="grey" cx="70.9" cy="-241.18" rx="14.5" ry="14.5"/>
<text text-anchor="middle" x="70.9" y="-237.48" font-family="Times New Roman,serif" font-size="14.00">37</text>
</g>
<!-- 36&#45;&#45;37 -->
<g id="edge52" class="edge">
<title>36&#45;&#45;37</title>
<path fill="none" stroke="grey" d="M35.49,-195.97C43.19,-205.8 54.23,-219.9 61.93,-229.73"/>
</g>
<!-- 38 -->
<g id="node39" class="node">
<title>38</title>
<ellipse fill="#ffffff" stroke="grey" cx="14.5" cy="-376.5" rx="14.5" ry="14.5"/>
<text text-anchor="middle" x="14.5" y="-372.8" font-family="Times New Roman,serif" font-size="14.00">38</text>
</g>
<!-- 39 -->
<g id="node40" class="node">
<title>39</title>
<ellipse fill="#ff9900" stroke="grey" cx="58.9" cy="-433.18" rx="14.5" ry="14.5"/>
<text text-anchor="middle" x="58.9" y="-429.48" font-family="Times New Roman,serif" font-size="14.00">39</text>
</g>
<!-- 38&#45;&#45;39 -->
<g id="edge53" class="edge">
<title>38&#45;&#45;39</title>
<path fill="none" stroke="grey" d="M23.49,-387.97C31.19,-397.8 42.23,-411.9 49.93,-421.73"/>
</g>
<!-- 40 -->
<g id="node41" class="node">
<title>40</title>
<ellipse fill="#ffffff" stroke="grey" cx="146.5" cy="-148.5" rx="14.5" ry="14.5"/>
<text text-anchor="middle" x="146.5" y="-144.8" font-family="Times New Roman,serif" font-size="14.00">40</text>
</g>
<!-- 41 -->
<g id="node42" class="node">
<title>41</title>
<ellipse fill="#ff9900" stroke="grey" cx="181.41" cy="-211.3" rx="14.5" ry="14.5"/>
<text text-anchor="middle" x="181.41" y="-207.6" font-family="Times New Roman,serif" font-size="14.00">41</text>
</g>
<!-- 40&#45;&#45;41 -->
<g id="edge54" class="edge">
<title>40&#45;&#45;41</title>
<path fill="none" stroke="grey" d="M153.56,-161.21C159.62,-172.1 168.3,-187.72 174.36,-198.61"/>
</g>
<!-- 42 -->
<g id="node43" class="node">
<title>42</title>
<ellipse fill="#9dff00" stroke="grey" cx="218.7" cy="-149.78" rx="14.5" ry="14.5"/>
<text text-anchor="middle" x="218.7" y="-146.08" font-family="Times New Roman,serif" font-size="14.00">42</text>
</g>
<!-- 40&#45;&#45;42 -->
<g id="edge55" class="edge">
<title>40&#45;&#45;42</title>
<path fill="none" stroke="grey" d="M161.11,-148.76C173.64,-148.98 191.59,-149.3 204.11,-149.52"/>
</g>
<!-- 41&#45;&#45;42 -->
<g id="edge56" class="edge">
<title>41&#45;&#45;42</title>
<path fill="none" stroke="grey" d="M188.96,-198.85C195.42,-188.18 204.7,-172.88 211.16,-162.21"/>
</g>
<!-- 43 -->
<g id="node44" class="node">
<title>43</title>
<ellipse fill="#ffffff" stroke="grey" cx="122.5" cy="-232.5" rx="14.5" ry="14.5"/>
<text text-anchor="middle" x="122.5" y="-228.8" font-family="Times New Roman,serif" font-size="14.00">43</text>
</g>
<!-- 44 -->
<g id="node45" class="node">
<title>44</title>
<ellipse fill="#ff9900" stroke="grey" cx="184.4" cy="-269.77" rx="14.5" ry="14.5"/>
<text text-anchor="middle" x="184.4" y="-266.07" font-family="Times New Roman,serif" font-size="14.00">44</text>
</g>
<!-- 43&#45;&#45;44 -->
<g id="edge57" class="edge">
<title>43&#45;&#45;44</title>
<path fill="none" stroke="grey" d="M135.03,-240.04C145.76,-246.51 161.16,-255.78 171.89,-262.24"/>
</g>
<!-- 45 -->
<g id="node46" class="node">
<title>45</title>
<ellipse fill="#ffffff" stroke="grey" cx="251.5" cy="-297.29" rx="14.5" ry="14.5"/>
<text text-anchor="middle" x="251.5" y="-293.59" font-family="Times New Roman,serif" font-size="14.00">45</text>
</g>
<!-- 44&#45;&#45;45 -->
<g id="edge58" class="edge">
<title>44&#45;&#45;45</title>
<path fill="none" stroke="grey" d="M197.98,-275.34C209.62,-280.11 226.31,-286.96 237.94,-291.73"/>
</g>
<!-- 46 -->
<g id="node47" class="node">
<title>46</title>
<ellipse fill="#ff9900" stroke="grey" cx="316.72" cy="-331.4" rx="14.5" ry="14.5"/>
<text text-anchor="middle" x="316.72" y="-327.7" font-family="Times New Roman,serif" font-size="14.00">46</text>
</g>
<!-- 45&#45;&#45;46 -->
<g id="edge59" class="edge">
<title>45&#45;&#45;46</title>
<path fill="none" stroke="grey" d="M264.39,-304.03C275.82,-310.01 292.43,-318.7 303.86,-324.68"/>
</g>
<!-- 47 -->
<g id="node48" class="node">
<title>47</title>
<ellipse fill="#ffffff" stroke="grey" cx="391.64" cy="-329.45" rx="14.5" ry="14.5"/>
<text text-anchor="middle" x="391.64" y="-325.75" font-family="Times New Roman,serif" font-size="14.00">47</text>
</g>
<!-- 46&#45;&#45;47 -->
<g id="edge60" class="edge">
<title>46&#45;&#45;47</title>
<path fill="none" stroke="grey" d="M331.52,-331.02C344.74,-330.67 363.99,-330.17 377.12,-329.83"/>
</g>
<!-- 48 -->
<g id="node49" class="node">
<title>48</title>
<ellipse fill="#9dff00" stroke="grey" cx="361.07" cy="-391.73" rx="14.5" ry="14.5"/>
<text text-anchor="middle" x="361.07" y="-388.03" font-family="Times New Roman,serif" font-size="14.00">48</text>
</g>
<!-- 46&#45;&#45;48 -->
<g id="edge61" class="edge">
<title>46&#45;&#45;48</title>
<path fill="none" stroke="grey" d="M325.48,-343.32C333.26,-353.9 344.56,-369.27 352.33,-379.83"/>
</g>
<!-- 47&#45;&#45;48 -->
<g id="edge62" class="edge">
<title>47&#45;&#45;48</title>
<path fill="none" stroke="grey" d="M385.15,-342.65C379.97,-353.22 372.73,-367.97 367.54,-378.54"/>
</g>
<!-- 49 -->
<g id="node50" class="node">
<title>49</title>
<ellipse fill="#ff9900" stroke="grey" cx="435.84" cy="-389.71" rx="14.5" ry="14.5"/>
<text text-anchor="middle" x="435.84" y="-386.01" font-family="Times New Roman,serif" font-size="14.00">49</text>
</g>
<!-- 47&#45;&#45;49 -->
<g id="edge63" class="edge">
<title>47&#45;&#45;49</title>
<path fill="none" stroke="grey" d="M400.37,-341.35C408.12,-351.92 419.38,-367.27 427.12,-377.83"/>
</g>
<!-- 48&#45;&#45;49 -->
<g id="edge64" class="edge">
<title>48&#45;&#45;49</title>
<path fill="none" stroke="grey" d="M375.84,-391.33C388.95,-390.98 408,-390.46 421.1,-390.11"/>
</g>
<!-- 50 -->
<g id="node51" class="node">
<title>50</title>
<ellipse fill="#ffffff" stroke="grey" cx="350.5" cy="-532.5" rx="14.5" ry="14.5"/>
<text text-anchor="middle" x="350.5" y="-528.8" font-family="Times New Roman,serif" font-size="14.00">50</text>
</g>
<!-- 51 -->
<g id="node52" class="node">
<title>51</title>
<ellipse fill="#ffffff" stroke="grey" cx="602.5" cy="-460.5" rx="14.5" ry="14.5"/>
<text text-anchor="middle" x="602.5" y="-456.8" font-family="Times New Roman,serif" font-size="14.00">51</text>
</g>
<!-- 52 -->
<g id="node53" class="node">
<title>52</title>
<ellipse fill="#ffffff" stroke="grey" cx="307.69" cy="-195.32" rx="14.5" ry="14.5"/>
<text text-anchor="middle" x="307.69" y="-191.62" font-family="Times New Roman,serif" font-size="14.00">52</text>
</g>
<!-- 53 -->
<g id="node54" class="node">
<title>53</title>
<ellipse fill="#ff9900" stroke="grey" cx="302.5" cy="-247.12" rx="14.5" ry="14.5"/>
<text text-anchor="middle" x="302.5" y="-243.42" font-family="Times New Roman,serif" font-size="14.00">53</text>
</g>
<!-- 52&#45;&#45;53 -->
<g id="edge65" class="edge">
<title>52&#45;&#45;53</title>
<path fill="none" stroke="grey" d="M306.24,-209.75C305.53,-216.81 304.68,-225.31 303.97,-232.41"/>
</g>
<!-- 54 -->
<g id="node55" class="node">
<title>54</title>
<ellipse fill="#9dff00" stroke="grey" cx="358.73" cy="-184.5" rx="14.5" ry="14.5"/>
<text text-anchor="middle" x="358.73" y="-180.8" font-family="Times New Roman,serif" font-size="14.00">54</text>
</g>
<!-- 52&#45;&#45;54 -->
<g id="edge66" class="edge">
<title>52&#45;&#45;54</title>
<path fill="none" stroke="grey" d="M321.9,-192.31C328.87,-190.83 337.23,-189.06 344.23,-187.57"/>
</g>
<!-- 55 -->
<g id="node56" class="node">
<title>55</title>
<ellipse fill="#00ff26" stroke="grey" cx="349.96" cy="-268.37" rx="14.5" ry="14.5"/>
<text text-anchor="middle" x="349.96" y="-264.67" font-family="Times New Roman,serif" font-size="14.00">55</text>
</g>
<!-- 52&#45;&#45;55 -->
<g id="edge67" class="edge">
<title>52&#45;&#45;55</title>
<path fill="none" stroke="grey" d="M315.05,-208.05C322.81,-221.45 334.95,-242.44 342.68,-255.79"/>
</g>
<!-- 56 -->
<g id="node57" class="node">
<title>56</title>
<ellipse fill="#00ffed" stroke="grey" cx="384.84" cy="-229.57" rx="14.5" ry="14.5"/>
<text text-anchor="middle" x="384.84" y="-225.87" font-family="Times New Roman,serif" font-size="14.00">56</text>
</g>
<!-- 52&#45;&#45;56 -->
<g id="edge68" class="edge">
<title>52&#45;&#45;56</title>
<path fill="none" stroke="grey" d="M321.12,-201.29C335.29,-207.58 357.45,-217.42 371.56,-223.68"/>
</g>
<!-- 53&#45;&#45;54 -->
<g id="edge69" class="edge">
<title>53&#45;&#45;54</title>
<path fill="none" stroke="grey" d="M312.29,-236.21C322.49,-224.86 338.38,-207.17 348.67,-195.7"/>
</g>
<!-- 53&#45;&#45;55 -->
<g id="edge70" class="edge">
<title>53&#45;&#45;55</title>
<path fill="none" stroke="grey" d="M315.97,-253.15C322.44,-256.05 330.17,-259.51 336.62,-262.4"/>
</g>
<!-- 53&#45;&#45;56 -->
<g id="edge71" class="edge">
<title>53&#45;&#45;56</title>
<path fill="none" stroke="grey" d="M316.84,-244.06C331.86,-240.86 355.32,-235.86 370.39,-232.65"/>
</g>
<!-- 54&#45;&#45;55 -->
<g id="edge72" class="edge">
<title>54&#45;&#45;55</title>
<path fill="none" stroke="grey" d="M357.2,-199.11C355.59,-214.5 353.07,-238.6 351.47,-253.93"/>
</g>
<!-- 54&#45;&#45;56 -->
<g id="edge73" class="edge">
<title>54&#45;&#45;56</title>
<path fill="none" stroke="grey" d="M366.14,-197.3C369.7,-203.44 373.95,-210.78 377.5,-216.9"/>
</g>
<!-- 55&#45;&#45;56 -->
<g id="edge74" class="edge">
<title>55&#45;&#45;56</title>
<path fill="none" stroke="grey" d="M359.86,-257.36C364.62,-252.07 370.29,-245.75 375.03,-240.48"/>
</g>
<!-- 57 -->
<g id="node58" class="node">
<title>57</title>
<ellipse fill="#ffffff" stroke="grey" cx="182.5" cy="-352.5" rx="14.5" ry="14.5"/>
<text text-anchor="middle" x="182.5" y="-348.8" font-family="Times New Roman,serif" font-size="14.00">57</text>
</g>
<!-- 58 -->
<g id="node59" class="node">
<title>58</title>
<ellipse fill="#ffffff" stroke="grey" cx="237.17" cy="-472.5" rx="14.5" ry="14.5"/>
<text text-anchor="middle" x="237.17" y="-468.8" font-family="Times New Roman,serif" font-size="14.00">58</text>
</g>
<!-- 59 -->
<g id="node60" class="node">
<title>59</title>
<ellipse fill="#ff9900" stroke="grey" cx="230.5" cy="-546.89" rx="14.5" ry="14.5"/>
<text text-anchor="middle" x="230.5" y="-543.19" font-family="Times New Roman,serif" font-size="14.00">59</text>
</g>
<!-- 58&#45;&#45;59 -->
<g id="edge75" class="edge">
<title>58&#45;&#45;59</title>
<path fill="none" stroke="grey" d="M235.85,-487.2C234.68,-500.24 232.98,-519.19 231.82,-532.23"/>
</g>
<!-- 60 -->
<g id="node61" class="node">
<title>60</title>
<ellipse fill="#9dff00" stroke="grey" cx="287.65" cy="-528.03" rx="14.5" ry="14.5"/>
<text text-anchor="middle" x="287.65" y="-524.33" font-family="Times New Roman,serif" font-size="14.00">60</text>
</g>
<!-- 58&#45;&#45;60 -->
<g id="edge76" class="edge">
<title>58&#45;&#45;60</title>
<path fill="none" stroke="grey" d="M247.14,-483.47C255.99,-493.21 268.85,-507.35 277.69,-517.08"/>
</g>
<!-- 59&#45;&#45;60 -->
<g id="edge77" class="edge">
<title>59&#45;&#45;60</title>
<path fill="none" stroke="grey" d="M244.33,-542.33C253.19,-539.41 264.64,-535.63 273.54,-532.69"/>
</g>
<!-- 61 -->
<g id="node62" class="node">
<title>61</title>
<ellipse fill="#ffffff" stroke="grey" cx="250.51" cy="-608.1" rx="14.5" ry="14.5"/>
<text text-anchor="middle" x="250.51" y="-604.4" font-family="Times New Roman,serif" font-size="14.00">61</text>
</g>
<!-- 59&#45;&#45;61 -->
<g id="edge78" class="edge">
<title>59&#45;&#45;61</title>
<path fill="none" stroke="grey" d="M235.04,-560.78C238.32,-570.8 242.72,-584.26 245.99,-594.26"/>
</g>
<!-- 62 -->
<g id="node63" class="node">
<title>62</title>
<ellipse fill="#00ff26" stroke="grey" cx="307.76" cy="-589.57" rx="14.5" ry="14.5"/>
<text text-anchor="middle" x="307.76" y="-585.87" font-family="Times New Roman,serif" font-size="14.00">62</text>
</g>
<!-- 59&#45;&#45;62 -->
<g id="edge79" class="edge">
<title>59&#45;&#45;62</title>
<path fill="none" stroke="grey" d="M243.26,-553.94C257.57,-561.85 280.66,-574.6 294.98,-582.51"/>
</g>
<!-- 60&#45;&#45;61 -->
<g id="edge80" class="edge">
<title>60&#45;&#45;61</title>
<path fill="none" stroke="grey" d="M281.51,-541.25C274.63,-556.09 263.54,-580.01 256.65,-594.86"/>
</g>
<!-- 60&#45;&#45;62 -->
<g id="edge81" class="edge">
<title>60&#45;&#45;62</title>
<path fill="none" stroke="grey" d="M292.21,-542C295.5,-552.07 299.92,-565.6 303.21,-575.66"/>
</g>
<!-- 61&#45;&#45;62 -->
<g id="edge82" class="edge">
<title>61&#45;&#45;62</title>
<path fill="none" stroke="grey" d="M264.37,-603.61C273.24,-600.74 284.71,-597.03 293.63,-594.14"/>
</g>
<!-- 63 -->
<g id="node64" class="node">
<title>63</title>
<ellipse fill="#ff9900" stroke="grey" cx="299.82" cy="-664.2" rx="14.5" ry="14.5"/>
<text text-anchor="middle" x="299.82" y="-660.5" font-family="Times New Roman,serif" font-size="14.00">63</text>
</g>
<!-- 61&#45;&#45;63 -->
<g id="edge83" class="edge">
<title>61&#45;&#45;63</title>
<path fill="none" stroke="grey" d="M260.25,-619.18C268.9,-629.02 281.46,-643.31 290.1,-653.14"/>
</g>
<!-- 62&#45;&#45;63 -->
<g id="edge84" class="edge">
<title>62&#45;&#45;63</title>
<path fill="none" stroke="grey" d="M306.19,-604.32C304.79,-617.48 302.75,-636.66 301.36,-649.74"/>
</g>
<!-- 64 -->
<g id="node65" class="node">
<title>64</title>
<ellipse fill="#ffffff" stroke="grey" cx="242.5" cy="-352.5" rx="14.5" ry="14.5"/>
<text text-anchor="middle" x="242.5" y="-348.8" font-family="Times New Roman,serif" font-size="14.00">64</text>
</g>
<!-- 65 -->
<g id="node66" class="node">
<title>65</title>
<ellipse fill="#ffffff" stroke="grey" cx="302.5" cy="-388.5" rx="14.5" ry="14.5"/>
<text text-anchor="middle" x="302.5" y="-384.8" font-family="Times New Roman,serif" font-size="14.00">65</text>
</g>
<!-- 66 -->
<g id="node67" class="node">
<title>66</title>
<ellipse fill="#ffffff" stroke="grey" cx="113.56" cy="-532.5" rx="14.5" ry="14.5"/>
<text text-anchor="middle" x="113.56" y="-528.8" font-family="Times New Roman,serif" font-size="14.00">66</text>
</g>
<!-- 67 -->
<g id="node68" class="node">
<title>67</title>
<ellipse fill="#ff9900" stroke="grey" cx="110.5" cy="-593.83" rx="14.5" ry="14.5"/>
<text text-anchor="middle" x="110.5" y="-590.13" font-family="Times New Roman,serif" font-size="14.00">67</text>
</g>
<!-- 66&#45;&#45;67 -->
<g id="edge85" class="edge">
<title>66&#45;&#45;67</title>
<path fill="none" stroke="grey" d="M112.84,-547.03C112.36,-556.67 111.73,-569.27 111.24,-578.97"/>
</g>
<!-- 68 -->
<g id="node69" class="node">
<title>68</title>
<ellipse fill="#9dff00" stroke="grey" cx="174.99" cy="-535.64" rx="14.5" ry="14.5"/>
<text text-anchor="middle" x="174.99" y="-531.94" font-family="Times New Roman,serif" font-size="14.00">68</text>
</g>
<!-- 66&#45;&#45;68 -->
<g id="edge86" class="edge">
<title>66&#45;&#45;68</title>
<path fill="none" stroke="grey" d="M128.12,-533.24C137.77,-533.74 150.4,-534.38 160.11,-534.88"/>
</g>
<!-- 69 -->
<g id="node70" class="node">
<title>69</title>
<ellipse fill="#00ff26" stroke="grey" cx="171.81" cy="-597.06" rx="14.5" ry="14.5"/>
<text text-anchor="middle" x="171.81" y="-593.36" font-family="Times New Roman,serif" font-size="14.00">69</text>
</g>
<!-- 66&#45;&#45;69 -->
<g id="edge87" class="edge">
<title>66&#45;&#45;69</title>
<path fill="none" stroke="grey" d="M123.44,-543.45C134.22,-555.4 151.36,-574.39 162.08,-586.27"/>
</g>
<!-- 67&#45;&#45;68 -->
<g id="edge88" class="edge">
<title>67&#45;&#45;68</title>
<path fill="none" stroke="grey" d="M121.44,-583.96C133.37,-573.19 152.35,-556.07 164.22,-545.36"/>
</g>
<!-- 67&#45;&#45;69 -->
<g id="edge89" class="edge">
<title>67&#45;&#45;69</title>
<path fill="none" stroke="grey" d="M125.03,-594.59C134.66,-595.1 147.26,-595.77 156.96,-596.28"/>
</g>
<!-- 68&#45;&#45;69 -->
<g id="edge90" class="edge">
<title>68&#45;&#45;69</title>
<path fill="none" stroke="grey" d="M174.24,-550.2C173.74,-559.85 173.09,-572.47 172.58,-582.18"/>
</g>
<!-- 70 -->
<g id="node71" class="node">
<title>70</title>
<ellipse fill="#ffffff" stroke="grey" cx="242.5" cy="-232.5" rx="14.5" ry="14.5"/>
<text text-anchor="middle" x="242.5" y="-228.8" font-family="Times New Roman,serif" font-size="14.00">70</text>
</g>
<!-- 71 -->
<g id="node72" class="node">
<title>71</title>
<ellipse fill="#ffffff" stroke="grey" cx="113.56" cy="-412.5" rx="14.5" ry="14.5"/>
<text text-anchor="middle" x="113.56" y="-408.8" font-family="Times New Roman,serif" font-size="14.00">71</text>
</g>
<!-- 72 -->
<g id="node73" class="node">
<title>72</title>
<ellipse fill="#ff9900" stroke="grey" cx="110.5" cy="-473.83" rx="14.5" ry="14.5"/>
<text text-anchor="middle" x="110.5" y="-470.13" font-family="Times New Roman,serif" font-size="14.00">72</text>
</g>
<!-- 71&#45;&#45;72 -->
<g id="edge91" class="edge">
<title>71&#45;&#45;72</title>
<path fill="none" stroke="grey" d="M112.84,-427.03C112.36,-436.67 111.73,-449.27 111.24,-458.97"/>
</g>
<!-- 73 -->
<g id="node74" class="node">
<title>73</title>
<ellipse fill="#9dff00" stroke="grey" cx="174.99" cy="-415.64" rx="14.5" ry="14.5"/>
<text text-anchor="middle" x="174.99" y="-411.94" font-family="Times New Roman,serif" font-size="14.00">73</text>
</g>
<!-- 71&#45;&#45;73 -->
<g id="edge92" class="edge">
<title>71&#45;&#45;73</title>
<path fill="none" stroke="grey" d="M128.12,-413.24C137.77,-413.74 150.4,-414.38 160.11,-414.88"/>
</g>
<!-- 74 -->
<g id="node75" class="node">
<title>74</title>
<ellipse fill="#00ff26" stroke="grey" cx="171.81" cy="-477.06" rx="14.5" ry="14.5"/>
<text text-anchor="middle" x="171.81" y="-473.36" font-family="Times New Roman,serif" font-size="14.00">74</text>
</g>
<!-- 71&#45;&#45;74 -->
<g id="edge93" class="edge">
<title>71&#45;&#45;74</title>
<path fill="none" stroke="grey" d="M123.44,-423.45C134.22,-435.4 151.36,-454.39 162.08,-466.27"/>
</g>
<!-- 72&#45;&#45;73 -->
<g id="edge94" class="edge">
<title>72&#45;&#45;73</title>
<path fill="none" stroke="grey" d="M121.44,-463.96C133.37,-453.19 152.35,-436.07 164.22,-425.36"/>
</g>
<!-- 72&#45;&#45;74 -->
<g id="edge95" class="edge">
<title>72&#45;&#45;74</title>
<path fill="none" stroke="grey" d="M125.03,-474.59C134.66,-475.1 147.26,-475.77 156.96,-476.28"/>
</g>
<!-- 73&#45;&#45;74 -->
<g id="edge96" class="edge">
<title>73&#45;&#45;74</title>
<path fill="none" stroke="grey" d="M174.24,-430.2C173.74,-439.85 173.09,-452.47 172.58,-462.18"/>
</g>
<!-- 75 -->
<g id="node76" class="node">
<title>75</title>
<ellipse fill="#ffffff" stroke="grey" cx="230.5" cy="-88.5" rx="14.5" ry="14.5"/>
<text text-anchor="middle" x="230.5" y="-84.8" font-family="Times New Roman,serif" font-size="14.00">75</text>
</g>
<!-- 76 -->
<g id="node77" class="node">
<title>76</title>
<ellipse fill="#ff9900" stroke="grey" cx="274.9" cy="-145.18" rx="14.5" ry="14.5"/>
<text text-anchor="middle" x="274.9" y="-141.48" font-family="Times New Roman,serif" font-size="14.00">76</text>
</g>
<!-- 75&#45;&#45;76 -->
<g id="edge97" class="edge">
<title>75&#45;&#45;76</title>
<path fill="none" stroke="grey" d="M239.49,-99.97C247.19,-109.8 258.23,-123.9 265.93,-133.73"/>
</g>
<!-- 77 -->
<g id="node78" class="node">
<title>77</title>
<ellipse fill="#ffffff" stroke="grey" cx="230.5" cy="-412.5" rx="14.5" ry="14.5"/>
<text text-anchor="middle" x="230.5" y="-408.8" font-family="Times New Roman,serif" font-size="14.00">77</text>
</g>
<!-- 78 -->
<g id="node79" class="node">
<title>78</title>
<ellipse fill="#ff9900" stroke="grey" cx="291.18" cy="-451.4" rx="14.5" ry="14.5"/>
<text text-anchor="middle" x="291.18" y="-447.7" font-family="Times New Roman,serif" font-size="14.00">78</text>
</g>
<!-- 77&#45;&#45;78 -->
<g id="edge98" class="edge">
<title>77&#45;&#45;78</title>
<path fill="none" stroke="grey" d="M242.78,-420.37C253.31,-427.12 268.4,-436.79 278.92,-443.54"/>
</g>
<!-- 79 -->
<g id="node80" class="node">
<title>79</title>
<ellipse fill="#ffffff" stroke="grey" cx="356.86" cy="-481.67" rx="14.5" ry="14.5"/>
<text text-anchor="middle" x="356.86" y="-477.97" font-family="Times New Roman,serif" font-size="14.00">79</text>
</g>
<!-- 78&#45;&#45;79 -->
<g id="edge99" class="edge">
<title>78&#45;&#45;79</title>
<path fill="none" stroke="grey" d="M304.47,-457.52C315.87,-462.78 332.2,-470.31 343.59,-475.56"/>
</g>
<!-- 80 -->
<g id="node81" class="node">
<title>80</title>
<ellipse fill="#ff9900" stroke="grey" cx="410.58" cy="-530.09" rx="14.5" ry="14.5"/>
<text text-anchor="middle" x="410.58" y="-526.39" font-family="Times New Roman,serif" font-size="14.00">80</text>
</g>
<!-- 79&#45;&#45;80 -->
<g id="edge100" class="edge">
<title>79&#45;&#45;80</title>
<path fill="none" stroke="grey" d="M367.73,-491.47C377.05,-499.87 390.41,-511.91 399.73,-520.31"/>
</g>
<!-- 81 -->
<g id="node82" class="node">
<title>81</title>
<ellipse fill="#ffffff" stroke="grey" cx="362.5" cy="-52.5" rx="14.5" ry="14.5"/>
<text text-anchor="middle" x="362.5" y="-48.8" font-family="Times New Roman,serif" font-size="14.00">81</text>
</g>
<!-- 82 -->
<g id="node83" class="node">
<title>82</title>
<ellipse fill="#ffffff" stroke="grey" cx="530.5" cy="-556.5" rx="14.5" ry="14.5"/>
<text text-anchor="middle" x="530.5" y="-552.8" font-family="Times New Roman,serif" font-size="14.00">82</text>
</g>
<!-- 83 -->
<g id="node84" class="node">
<title>83</title>
<ellipse fill="#ff9900" stroke="grey" cx="565.41" cy="-619.3" rx="14.5" ry="14.5"/>
<text text-anchor="middle" x="565.41" y="-615.6" font-family="Times New Roman,serif" font-size="14.00">83</text>
</g>
<!-- 82&#45;&#45;83 -->
<g id="edge101" class="edge">
<title>82&#45;&#45;83</title>
<path fill="none" stroke="grey" d="M537.56,-569.21C543.62,-580.1 552.3,-595.72 558.36,-606.61"/>
</g>
<!-- 84 -->
<g id="node85" class="node">
<title>84</title>
<ellipse fill="#9dff00" stroke="grey" cx="602.7" cy="-557.78" rx="14.5" ry="14.5"/>
<text text-anchor="middle" x="602.7" y="-554.08" font-family="Times New Roman,serif" font-size="14.00">84</text>
</g>
<!-- 82&#45;&#45;84 -->
<g id="edge102" class="edge">
<title>82&#45;&#45;84</title>
<path fill="none" stroke="grey" d="M545.11,-556.76C557.64,-556.98 575.59,-557.3 588.11,-557.52"/>
</g>
<!-- 83&#45;&#45;84 -->
<g id="edge103" class="edge">
<title>83&#45;&#45;84</title>
<path fill="none" stroke="grey" d="M572.96,-606.85C579.42,-596.18 588.7,-580.88 595.16,-570.21"/>
</g>
<!-- 85 -->
<g id="node86" class="node">
<title>85</title>
<ellipse fill="#ffffff" stroke="grey" cx="554.5" cy="-340.5" rx="14.5" ry="14.5"/>
<text text-anchor="middle" x="554.5" y="-336.8" font-family="Times New Roman,serif" font-size="14.00">85</text>
</g>
<!-- 86 -->
<g id="node87" class="node">
<title>86</title>
<ellipse fill="#ff9900" stroke="grey" cx="589.41" cy="-403.3" rx="14.5" ry="14.5"/>
<text text-anchor="middle" x="589.41" y="-399.6" font-family="Times New Roman,serif" font-size="14.00">86</text>
</g>
<!-- 85&#45;&#45;86 -->
<g id="edge104" class="edge">
<title>85&#45;&#45;86</title>
<path fill="none" stroke="grey" d="M561.56,-353.21C567.62,-364.1 576.3,-379.72 582.36,-390.61"/>
</g>
<!-- 87 -->
<g id="node88" class="node">
<title>87</title>
<ellipse fill="#9dff00" stroke="grey" cx="626.7" cy="-341.78" rx="14.5" ry="14.5"/>
<text text-anchor="middle" x="626.7" y="-338.08" font-family="Times New Roman,serif" font-size="14.00">87</text>
</g>
<!-- 85&#45;&#45;87 -->
<g id="edge105" class="edge">
<title>85&#45;&#45;87</title>
<path fill="none" stroke="grey" d="M569.11,-340.76C581.64,-340.98 599.59,-341.3 612.11,-341.52"/>
</g>
<!-- 86&#45;&#45;87 -->
<g id="edge106" class="edge">
<title>86&#45;&#45;87</title>
<path fill="none" stroke="grey" d="M596.96,-390.85C603.42,-380.18 612.7,-364.88 619.16,-354.21"/>
</g>
<!-- 88 -->
<g id="node89" class="node">
<title>88</title>
<ellipse fill="#ffffff" stroke="grey" cx="62.5" cy="-40.5" rx="14.5" ry="14.5"/>
<text text-anchor="middle" x="62.5" y="-36.8" font-family="Times New Roman,serif" font-size="14.00">88</text>
</g>
<!-- 89 -->
<g id="node90" class="node">
<title>89</title>
<ellipse fill="#ff9900" stroke="grey" cx="106.9" cy="-97.18" rx="14.5" ry="14.5"/>
<text text-anchor="middle" x="106.9" y="-93.48" font-family="Times New Roman,serif" font-size="14.00">89</text>
</g>
<!-- 88&#45;&#45;89 -->
<g id="edge107" class="edge">
<title>88&#45;&#45;89</title>
<path fill="none" stroke="grey" d="M71.49,-51.97C79.19,-61.8 90.23,-75.9 97.93,-85.73"/>
</g>
<!-- 90 -->
<g id="node91" class="node">
<title>90</title>
<ellipse fill="#ffffff" stroke="grey" cx="602.5" cy="-208.5" rx="14.5" ry="14.5"/>
<text text-anchor="middle" x="602.5" y="-204.8" font-family="Times New Roman,serif" font-size="14.00">90</text>
</g>
<!-- 91 -->
<g id="node92" class="node">
<title>91</title>
<ellipse fill="#ffffff" stroke="grey" cx="50.5" cy="-592.5" rx="14.5" ry="14.5"/>
<text text-anchor="middle" x="50.5" y="-588.8" font-family="Times New Roman,serif" font-size="14.00">91</text>
</g>
<!-- 92 -->
<g id="node93" class="node">
<title>92</title>
<ellipse fill="#ff9900" stroke="grey" cx="94.9" cy="-649.18" rx="14.5" ry="14.5"/>
<text text-anchor="middle" x="94.9" y="-645.48" font-family="Times New Roman,serif" font-size="14.00">92</text>
</g>
<!-- 91&#45;&#45;92 -->
<g id="edge108" class="edge">
<title>91&#45;&#45;92</title>
<path fill="none" stroke="grey" d="M59.49,-603.97C67.19,-613.8 78.23,-627.9 85.93,-637.73"/>
</g>
</g>
</svg>
