<?xml version="1.0" encoding="UTF-8" standalone="no"?>
<!DOCTYPE svg PUBLIC "-//W3C//DTD SVG 1.1//EN"
 "http://www.w3.org/Graphics/SVG/1.1/DTD/svg11.dtd">
<!-- Generated by graphviz version 3.0.0 (20220226.1711)
 -->
<!-- Title: DSATUR_G2 Pages: 1 -->
<svg width="190pt" height="266pt"
 viewBox="0.00 0.00 189.56 266.04" xmlns="http://www.w3.org/2000/svg" xmlns:xlink="http://www.w3.org/1999/xlink">
<g id="graph0" class="graph" transform="scale(1 1) rotate(0) translate(4 262.04)">
<title>DSATUR_G2</title>
<polygon fill="transparent" stroke="transparent" points="-4,4 -4,-262.04 185.56,-262.04 185.56,4 -4,4"/>
<text text-anchor="middle" x="90.78" y="-9.2" font-family="Times New Roman,serif" font-size="16.00" fill="grey">DSATUR_G2</text>
<!-- 0 -->
<g id="node1" class="node">
<title>0</title>
<ellipse fill="#ffffff" stroke="grey" cx="75.45" cy="-96.62" rx="14.5" ry="14.5"/>
<text text-anchor="middle" x="75.45" y="-92.92" font-family="Times New Roman,serif" font-size="14.00">0</text>
</g>
<!-- 1 -->
<g id="node2" class="node">
<title>1</title>
<ellipse fill="#ff00bf" stroke="grey" cx="22.88" cy="-157.18" rx="14.5" ry="14.5"/>
<text text-anchor="middle" x="22.88" y="-153.48" font-family="Times New Roman,serif" font-size="14.00">1</text>
</g>
<!-- 0&#45;&#45;1 -->
<g id="edge1" class="edge">
<title>0&#45;&#45;1</title>
<path fill="none" stroke="grey" d="M65.81,-107.73C56.32,-118.65 41.93,-135.24 32.46,-146.14"/>
</g>
<!-- 2 -->
<g id="node3" class="node">
<title>2</title>
<ellipse fill="#ff00bf" stroke="grey" cx="96.42" cy="-40.5" rx="14.5" ry="14.5"/>
<text text-anchor="middle" x="96.42" y="-36.8" font-family="Times New Roman,serif" font-size="14.00">2</text>
</g>
<!-- 0&#45;&#45;2 -->
<g id="edge2" class="edge">
<title>0&#45;&#45;2</title>
<path fill="none" stroke="grey" d="M80.53,-83.03C83.78,-74.34 87.98,-63.09 91.25,-54.35"/>
</g>
<!-- 3 -->
<g id="node4" class="node">
<title>3</title>
<ellipse fill="#5cff00" stroke="grey" cx="167.06" cy="-80.87" rx="14.5" ry="14.5"/>
<text text-anchor="middle" x="167.06" y="-77.17" font-family="Times New Roman,serif" font-size="14.00">3</text>
</g>
<!-- 0&#45;&#45;3 -->
<g id="edge3" class="edge">
<title>0&#45;&#45;3</title>
<path fill="none" stroke="grey" d="M89.76,-94.16C106.87,-91.22 135.35,-86.32 152.55,-83.37"/>
</g>
<!-- 6 -->
<g id="node7" class="node">
<title>6</title>
<ellipse fill="#008fff" stroke="grey" cx="128.98" cy="-126.53" rx="14.5" ry="14.5"/>
<text text-anchor="middle" x="128.98" y="-122.83" font-family="Times New Roman,serif" font-size="14.00">6</text>
</g>
<!-- 0&#45;&#45;6 -->
<g id="edge4" class="edge">
<title>0&#45;&#45;6</title>
<path fill="none" stroke="grey" d="M88.13,-103.71C96.54,-108.41 107.54,-114.56 116.01,-119.29"/>
</g>
<!-- 4 -->
<g id="node5" class="node">
<title>4</title>
<ellipse fill="#ffffff" stroke="grey" cx="59.46" cy="-243.54" rx="14.5" ry="14.5"/>
<text text-anchor="middle" x="59.46" y="-239.84" font-family="Times New Roman,serif" font-size="14.00">4</text>
</g>
<!-- 1&#45;&#45;4 -->
<g id="edge5" class="edge">
<title>1&#45;&#45;4</title>
<path fill="none" stroke="grey" d="M28.6,-170.68C35.47,-186.9 46.93,-213.96 53.79,-230.14"/>
</g>
<!-- 5 -->
<g id="node6" class="node">
<title>5</title>
<ellipse fill="#008fff" stroke="grey" cx="14.5" cy="-218.98" rx="14.5" ry="14.5"/>
<text text-anchor="middle" x="14.5" y="-215.28" font-family="Times New Roman,serif" font-size="14.00">5</text>
</g>
<!-- 1&#45;&#45;5 -->
<g id="edge6" class="edge">
<title>1&#45;&#45;5</title>
<path fill="none" stroke="grey" d="M20.9,-171.83C19.56,-181.68 17.81,-194.61 16.47,-204.44"/>
</g>
<!-- 2&#45;&#45;6 -->
<g id="edge7" class="edge">
<title>2&#45;&#45;6</title>
<path fill="none" stroke="grey" d="M101.65,-54.32C107.73,-70.38 117.69,-96.71 123.76,-112.75"/>
</g>
<!-- 3&#45;&#45;6 -->
<g id="edge8" class="edge">
<title>3&#45;&#45;6</title>
<path fill="none" stroke="grey" d="M157.45,-92.4C151.64,-99.37 144.25,-108.23 138.45,-115.17"/>
</g>
<!-- 4&#45;&#45;5 -->
<g id="edge9" class="edge">
<title>4&#45;&#45;5</title>
<path fill="none" stroke="grey" d="M46.7,-236.57C40.67,-233.28 33.5,-229.36 27.45,-226.05"/>
</g>
<!-- 7 -->
<g id="node8" class="node">
<title>7</title>
<ellipse fill="#5cff00" stroke="grey" cx="106.93" cy="-203.4" rx="14.5" ry="14.5"/>
<text text-anchor="middle" x="106.93" y="-199.7" font-family="Times New Roman,serif" font-size="14.00">7</text>
</g>
<!-- 4&#45;&#45;7 -->
<g id="edge10" class="edge">
<title>4&#45;&#45;7</title>
<path fill="none" stroke="grey" d="M70.95,-233.83C78.42,-227.52 88.1,-219.32 95.55,-213.03"/>
</g>
<!-- 5&#45;&#45;7 -->
<g id="edge11" class="edge">
<title>5&#45;&#45;7</title>
<path fill="none" stroke="grey" d="M28.94,-216.54C46.31,-213.62 75.27,-208.74 92.59,-205.82"/>
</g>
<!-- 6&#45;&#45;7 -->
<g id="edge12" class="edge">
<title>6&#45;&#45;7</title>
<path fill="none" stroke="grey" d="M124.93,-140.63C120.96,-154.5 114.92,-175.55 110.95,-189.39"/>
</g>
</g>
</svg>
