<?xml version="1.0" encoding="UTF-8" standalone="no"?>
<!DOCTYPE svg PUBLIC "-//W3C//DTD SVG 1.1//EN"
 "http://www.w3.org/Graphics/SVG/1.1/DTD/svg11.dtd">
<!-- Generated by graphviz version 3.0.0 (20220226.1711)
 -->
<!-- Title: Gblanc Pages: 1 -->
<svg width="280pt" height="280pt"
 viewBox="0.00 0.00 279.66 279.84" xmlns="http://www.w3.org/2000/svg" xmlns:xlink="http://www.w3.org/1999/xlink">
<g id="graph0" class="graph" transform="scale(1 1) rotate(0) translate(4 275.84)">
<title>Gblanc</title>
<polygon fill="transparent" stroke="transparent" points="-4,4 -4,-275.84 275.66,-275.84 275.66,4 -4,4"/>
<text text-anchor="middle" x="135.83" y="-9.2" font-family="Times New Roman,serif" font-size="16.00" fill="grey">Gblanc</text>
<!-- 0 -->
<g id="node1" class="node">
<title>0</title>
<ellipse fill="#ffffff" stroke="grey" cx="14.5" cy="-172.2" rx="14.5" ry="14.5"/>
<text text-anchor="middle" x="14.5" y="-168.5" font-family="Times New Roman,serif" font-size="14.00">0</text>
</g>
<!-- 13 -->
<g id="node14" class="node">
<title>13</title>
<ellipse fill="#ffffff" stroke="grey" cx="49.93" cy="-197.68" rx="14.5" ry="14.5"/>
<text text-anchor="middle" x="49.93" y="-193.98" font-family="Times New Roman,serif" font-size="14.00">13</text>
</g>
<!-- 0&#45;&#45;13 -->
<g id="edge1" class="edge">
<title>0&#45;&#45;13</title>
<path fill="none" stroke="grey" d="M26.49,-180.83C30.19,-183.48 34.25,-186.41 37.95,-189.06"/>
</g>
<!-- 14 -->
<g id="node15" class="node">
<title>14</title>
<ellipse fill="#ffffff" stroke="grey" cx="120.51" cy="-187.16" rx="14.5" ry="14.5"/>
<text text-anchor="middle" x="120.51" y="-183.46" font-family="Times New Roman,serif" font-size="14.00">14</text>
</g>
<!-- 0&#45;&#45;14 -->
<g id="edge2" class="edge">
<title>0&#45;&#45;14</title>
<path fill="none" stroke="grey" d="M29.24,-174.28C49.49,-177.14 85.71,-182.25 105.89,-185.1"/>
</g>
<!-- 15 -->
<g id="node16" class="node">
<title>15</title>
<ellipse fill="#ffffff" stroke="grey" cx="91.34" cy="-162.1" rx="14.5" ry="14.5"/>
<text text-anchor="middle" x="91.34" y="-158.4" font-family="Times New Roman,serif" font-size="14.00">15</text>
</g>
<!-- 0&#45;&#45;15 -->
<g id="edge3" class="edge">
<title>0&#45;&#45;15</title>
<path fill="none" stroke="grey" d="M28.95,-170.3C42.69,-168.49 63.24,-165.79 76.96,-163.99"/>
</g>
<!-- 16 -->
<g id="node17" class="node">
<title>16</title>
<ellipse fill="#ffffff" stroke="grey" cx="85.59" cy="-214.5" rx="14.5" ry="14.5"/>
<text text-anchor="middle" x="85.59" y="-210.8" font-family="Times New Roman,serif" font-size="14.00">16</text>
</g>
<!-- 0&#45;&#45;16 -->
<g id="edge4" class="edge">
<title>0&#45;&#45;16</title>
<path fill="none" stroke="grey" d="M27.21,-179.76C40.15,-187.46 60.09,-199.33 72.99,-207"/>
</g>
<!-- 17 -->
<g id="node18" class="node">
<title>17</title>
<ellipse fill="#ffffff" stroke="grey" cx="53.72" cy="-148.14" rx="14.5" ry="14.5"/>
<text text-anchor="middle" x="53.72" y="-144.44" font-family="Times New Roman,serif" font-size="14.00">17</text>
</g>
<!-- 0&#45;&#45;17 -->
<g id="edge5" class="edge">
<title>0&#45;&#45;17</title>
<path fill="none" stroke="grey" d="M26.91,-164.59C31.49,-161.78 36.67,-158.6 41.26,-155.79"/>
</g>
<!-- 29 -->
<g id="node30" class="node">
<title>29</title>
<ellipse fill="#ffffff" stroke="grey" cx="131.03" cy="-148.45" rx="14.5" ry="14.5"/>
<text text-anchor="middle" x="131.03" y="-144.75" font-family="Times New Roman,serif" font-size="14.00">29</text>
</g>
<!-- 0&#45;&#45;29 -->
<g id="edge6" class="edge">
<title>0&#45;&#45;29</title>
<path fill="none" stroke="grey" d="M28.79,-169.29C51.15,-164.73 94.19,-155.96 116.62,-151.39"/>
</g>
<!-- 1 -->
<g id="node2" class="node">
<title>1</title>
<ellipse fill="#ffffff" stroke="grey" cx="23.2" cy="-243.01" rx="14.5" ry="14.5"/>
<text text-anchor="middle" x="23.2" y="-239.31" font-family="Times New Roman,serif" font-size="14.00">1</text>
</g>
<!-- 1&#45;&#45;13 -->
<g id="edge7" class="edge">
<title>1&#45;&#45;13</title>
<path fill="none" stroke="grey" d="M30.79,-230.14C34.43,-223.97 38.78,-216.59 42.41,-210.43"/>
</g>
<!-- 1&#45;&#45;14 -->
<g id="edge8" class="edge">
<title>1&#45;&#45;14</title>
<path fill="none" stroke="grey" d="M35.92,-235.71C54.57,-225.01 89.13,-205.17 107.78,-194.46"/>
</g>
<!-- 1&#45;&#45;15 -->
<g id="edge9" class="edge">
<title>1&#45;&#45;15</title>
<path fill="none" stroke="grey" d="M32.67,-231.76C45.69,-216.3 68.97,-188.66 81.95,-173.25"/>
</g>
<!-- 1&#45;&#45;16 -->
<g id="edge10" class="edge">
<title>1&#45;&#45;16</title>
<path fill="none" stroke="grey" d="M36.43,-236.97C47.02,-232.13 61.79,-225.37 72.38,-220.54"/>
</g>
<!-- 1&#45;&#45;17 -->
<g id="edge11" class="edge">
<title>1&#45;&#45;17</title>
<path fill="none" stroke="grey" d="M27.7,-229.02C33.47,-211.08 43.42,-180.16 49.2,-162.2"/>
</g>
<!-- 18 -->
<g id="node19" class="node">
<title>18</title>
<ellipse fill="#ffffff" stroke="grey" cx="131.95" cy="-223.3" rx="14.5" ry="14.5"/>
<text text-anchor="middle" x="131.95" y="-219.6" font-family="Times New Roman,serif" font-size="14.00">18</text>
</g>
<!-- 1&#45;&#45;18 -->
<g id="edge12" class="edge">
<title>1&#45;&#45;18</title>
<path fill="none" stroke="grey" d="M37.86,-240.36C58.74,-236.57 96.77,-229.68 117.51,-225.92"/>
</g>
<!-- 1&#45;&#45;29 -->
<g id="edge13" class="edge">
<title>1&#45;&#45;29</title>
<path fill="none" stroke="grey" d="M34.33,-233.25C55.1,-215.04 99.51,-176.09 120.12,-158.02"/>
</g>
<!-- 2 -->
<g id="node3" class="node">
<title>2</title>
<ellipse fill="#ffffff" stroke="grey" cx="150.25" cy="-257.34" rx="14.5" ry="14.5"/>
<text text-anchor="middle" x="150.25" y="-253.64" font-family="Times New Roman,serif" font-size="14.00">2</text>
</g>
<!-- 3 -->
<g id="node4" class="node">
<title>3</title>
<ellipse fill="#ffffff" stroke="grey" cx="83.07" cy="-254.51" rx="14.5" ry="14.5"/>
<text text-anchor="middle" x="83.07" y="-250.81" font-family="Times New Roman,serif" font-size="14.00">3</text>
</g>
<!-- 2&#45;&#45;3 -->
<g id="edge14" class="edge">
<title>2&#45;&#45;3</title>
<path fill="none" stroke="grey" d="M135.68,-256.73C124.41,-256.25 108.88,-255.6 97.62,-255.12"/>
</g>
<!-- 2&#45;&#45;13 -->
<g id="edge15" class="edge">
<title>2&#45;&#45;13</title>
<path fill="none" stroke="grey" d="M137.55,-249.79C118.25,-238.31 81.77,-216.62 62.53,-205.18"/>
</g>
<!-- 2&#45;&#45;14 -->
<g id="edge16" class="edge">
<title>2&#45;&#45;14</title>
<path fill="none" stroke="grey" d="M144.52,-243.81C139.25,-231.38 131.49,-213.07 126.23,-200.65"/>
</g>
<!-- 2&#45;&#45;15 -->
<g id="edge17" class="edge">
<title>2&#45;&#45;15</title>
<path fill="none" stroke="grey" d="M142.55,-244.89C131.26,-226.64 110.34,-192.81 99.05,-174.55"/>
</g>
<!-- 2&#45;&#45;16 -->
<g id="edge18" class="edge">
<title>2&#45;&#45;16</title>
<path fill="none" stroke="grey" d="M138.09,-249.28C126.53,-241.62 109.24,-230.17 97.7,-222.52"/>
</g>
<!-- 2&#45;&#45;17 -->
<g id="edge19" class="edge">
<title>2&#45;&#45;17</title>
<path fill="none" stroke="grey" d="M140.64,-246.47C122.24,-225.65 82.18,-180.33 63.58,-159.29"/>
</g>
<!-- 2&#45;&#45;18 -->
<g id="edge20" class="edge">
<title>2&#45;&#45;18</title>
<path fill="none" stroke="grey" d="M143.23,-244.28C141.86,-241.73 140.42,-239.05 139.04,-236.5"/>
</g>
<!-- 19 -->
<g id="node20" class="node">
<title>19</title>
<ellipse fill="#ffffff" stroke="grey" cx="146.97" cy="-83.55" rx="14.5" ry="14.5"/>
<text text-anchor="middle" x="146.97" y="-79.85" font-family="Times New Roman,serif" font-size="14.00">19</text>
</g>
<!-- 2&#45;&#45;19 -->
<g id="edge21" class="edge">
<title>2&#45;&#45;19</title>
<path fill="none" stroke="grey" d="M149.98,-242.82C149.36,-210.19 147.87,-131.34 147.25,-98.4"/>
</g>
<!-- 2&#45;&#45;29 -->
<g id="edge22" class="edge">
<title>2&#45;&#45;29</title>
<path fill="none" stroke="grey" d="M147.66,-242.66C143.97,-221.76 137.25,-183.67 133.58,-162.9"/>
</g>
<!-- 3&#45;&#45;13 -->
<g id="edge23" class="edge">
<title>3&#45;&#45;13</title>
<path fill="none" stroke="grey" d="M75.72,-241.89C70.22,-232.48 62.75,-219.66 57.26,-210.26"/>
</g>
<!-- 3&#45;&#45;14 -->
<g id="edge24" class="edge">
<title>3&#45;&#45;14</title>
<path fill="none" stroke="grey" d="M90.29,-241.52C96.92,-229.6 106.69,-212.02 113.31,-200.11"/>
</g>
<!-- 3&#45;&#45;15 -->
<g id="edge25" class="edge">
<title>3&#45;&#45;15</title>
<path fill="none" stroke="grey" d="M84.4,-239.66C85.95,-222.31 88.51,-193.8 90.05,-176.6"/>
</g>
<!-- 3&#45;&#45;16 -->
<g id="edge26" class="edge">
<title>3&#45;&#45;16</title>
<path fill="none" stroke="grey" d="M84.01,-239.61C84.23,-236.14 84.46,-232.46 84.68,-229.01"/>
</g>
<!-- 3&#45;&#45;17 -->
<g id="edge27" class="edge">
<title>3&#45;&#45;17</title>
<path fill="none" stroke="grey" d="M79.11,-240.16C73.48,-219.75 63.21,-182.55 57.62,-162.26"/>
</g>
<!-- 3&#45;&#45;18 -->
<g id="edge28" class="edge">
<title>3&#45;&#45;18</title>
<path fill="none" stroke="grey" d="M95.41,-246.63C102.76,-241.94 112.07,-236 119.45,-231.28"/>
</g>
<!-- 3&#45;&#45;19 -->
<g id="edge29" class="edge">
<title>3&#45;&#45;19</title>
<path fill="none" stroke="grey" d="M88.19,-240.8C100.16,-208.79 129.83,-129.39 141.82,-97.32"/>
</g>
<!-- 3&#45;&#45;29 -->
<g id="edge30" class="edge">
<title>3&#45;&#45;29</title>
<path fill="none" stroke="grey" d="M89.15,-241.07C98.37,-220.67 115.81,-182.11 125,-161.77"/>
</g>
<!-- 4 -->
<g id="node5" class="node">
<title>4</title>
<ellipse fill="#ffffff" stroke="grey" cx="162.02" cy="-124.29" rx="14.5" ry="14.5"/>
<text text-anchor="middle" x="162.02" y="-120.59" font-family="Times New Roman,serif" font-size="14.00">4</text>
</g>
<!-- 4&#45;&#45;13 -->
<g id="edge31" class="edge">
<title>4&#45;&#45;13</title>
<path fill="none" stroke="grey" d="M149.6,-132.43C127.94,-146.61 83.53,-175.68 62.07,-189.73"/>
</g>
<!-- 4&#45;&#45;14 -->
<g id="edge32" class="edge">
<title>4&#45;&#45;14</title>
<path fill="none" stroke="grey" d="M154.02,-136.42C146.76,-147.4 136.11,-163.54 128.77,-174.65"/>
</g>
<!-- 4&#45;&#45;15 -->
<g id="edge33" class="edge">
<title>4&#45;&#45;15</title>
<path fill="none" stroke="grey" d="M149.06,-131.23C136.31,-138.05 116.95,-148.4 104.23,-155.21"/>
</g>
<!-- 4&#45;&#45;16 -->
<g id="edge34" class="edge">
<title>4&#45;&#45;16</title>
<path fill="none" stroke="grey" d="M152.34,-135.72C137.64,-153.07 109.85,-185.87 95.19,-203.17"/>
</g>
<!-- 4&#45;&#45;17 -->
<g id="edge35" class="edge">
<title>4&#45;&#45;17</title>
<path fill="none" stroke="grey" d="M147.42,-127.51C126.63,-132.09 88.75,-140.43 68.09,-144.98"/>
</g>
<!-- 4&#45;&#45;18 -->
<g id="edge36" class="edge">
<title>4&#45;&#45;18</title>
<path fill="none" stroke="grey" d="M157.71,-138.48C152,-157.3 141.96,-190.34 136.25,-209.14"/>
</g>
<!-- 4&#45;&#45;19 -->
<g id="edge37" class="edge">
<title>4&#45;&#45;19</title>
<path fill="none" stroke="grey" d="M156.93,-110.5C155.36,-106.25 153.63,-101.58 152.06,-97.33"/>
</g>
<!-- 20 -->
<g id="node21" class="node">
<title>20</title>
<ellipse fill="#ffffff" stroke="grey" cx="201.25" cy="-67.09" rx="14.5" ry="14.5"/>
<text text-anchor="middle" x="201.25" y="-63.39" font-family="Times New Roman,serif" font-size="14.00">20</text>
</g>
<!-- 4&#45;&#45;20 -->
<g id="edge38" class="edge">
<title>4&#45;&#45;20</title>
<path fill="none" stroke="grey" d="M170.34,-112.16C177,-102.46 186.29,-88.91 192.95,-79.2"/>
</g>
<!-- 21 -->
<g id="node22" class="node">
<title>21</title>
<ellipse fill="#ffffff" stroke="grey" cx="189.17" cy="-231.62" rx="14.5" ry="14.5"/>
<text text-anchor="middle" x="189.17" y="-227.92" font-family="Times New Roman,serif" font-size="14.00">21</text>
</g>
<!-- 4&#45;&#45;21 -->
<g id="edge39" class="edge">
<title>4&#45;&#45;21</title>
<path fill="none" stroke="grey" d="M165.68,-138.77C170.89,-159.37 180.39,-196.9 185.56,-217.37"/>
</g>
<!-- 22 -->
<g id="node23" class="node">
<title>22</title>
<ellipse fill="#ffffff" stroke="grey" cx="170.7" cy="-40.5" rx="14.5" ry="14.5"/>
<text text-anchor="middle" x="170.7" y="-36.8" font-family="Times New Roman,serif" font-size="14.00">22</text>
</g>
<!-- 4&#45;&#45;22 -->
<g id="edge40" class="edge">
<title>4&#45;&#45;22</title>
<path fill="none" stroke="grey" d="M163.53,-109.7C165.13,-94.32 167.62,-70.24 169.21,-54.93"/>
</g>
<!-- 23 -->
<g id="node24" class="node">
<title>23</title>
<ellipse fill="#ffffff" stroke="grey" cx="112.26" cy="-43.47" rx="14.5" ry="14.5"/>
<text text-anchor="middle" x="112.26" y="-39.77" font-family="Times New Roman,serif" font-size="14.00">23</text>
</g>
<!-- 4&#45;&#45;23 -->
<g id="edge41" class="edge">
<title>4&#45;&#45;23</title>
<path fill="none" stroke="grey" d="M154.25,-111.67C144.9,-96.48 129.31,-71.16 119.98,-56.01"/>
</g>
<!-- 4&#45;&#45;29 -->
<g id="edge42" class="edge">
<title>4&#45;&#45;29</title>
<path fill="none" stroke="grey" d="M150.48,-133.29C147.86,-135.33 145.09,-137.49 142.48,-139.53"/>
</g>
<!-- 5 -->
<g id="node6" class="node">
<title>5</title>
<ellipse fill="#ffffff" stroke="grey" cx="164.01" cy="-183.28" rx="14.5" ry="14.5"/>
<text text-anchor="middle" x="164.01" y="-179.58" font-family="Times New Roman,serif" font-size="14.00">5</text>
</g>
<!-- 5&#45;&#45;13 -->
<g id="edge43" class="edge">
<title>5&#45;&#45;13</title>
<path fill="none" stroke="grey" d="M149.56,-185.11C127.74,-187.86 86.59,-193.05 64.62,-195.83"/>
</g>
<!-- 5&#45;&#45;14 -->
<g id="edge44" class="edge">
<title>5&#45;&#45;14</title>
<path fill="none" stroke="grey" d="M149.28,-184.6C144.75,-185 139.76,-185.45 135.22,-185.85"/>
</g>
<!-- 5&#45;&#45;15 -->
<g id="edge45" class="edge">
<title>5&#45;&#45;15</title>
<path fill="none" stroke="grey" d="M150,-179.2C137.13,-175.45 118.17,-169.92 105.31,-166.17"/>
</g>
<!-- 5&#45;&#45;16 -->
<g id="edge46" class="edge">
<title>5&#45;&#45;16</title>
<path fill="none" stroke="grey" d="M150.35,-188.72C135.96,-194.45 113.43,-203.42 99.09,-209.12"/>
</g>
<!-- 5&#45;&#45;17 -->
<g id="edge47" class="edge">
<title>5&#45;&#45;17</title>
<path fill="none" stroke="grey" d="M150.04,-178.83C128.83,-172.07 88.72,-159.29 67.58,-152.56"/>
</g>
<!-- 5&#45;&#45;18 -->
<g id="edge48" class="edge">
<title>5&#45;&#45;18</title>
<path fill="none" stroke="grey" d="M154.91,-194.64C150.61,-200.01 145.5,-206.39 141.18,-211.78"/>
</g>
<!-- 5&#45;&#45;19 -->
<g id="edge49" class="edge">
<title>5&#45;&#45;19</title>
<path fill="none" stroke="grey" d="M161.5,-168.57C158.26,-149.6 152.66,-116.84 149.44,-98"/>
</g>
<!-- 5&#45;&#45;20 -->
<g id="edge50" class="edge">
<title>5&#45;&#45;20</title>
<path fill="none" stroke="grey" d="M168.58,-169.04C175.76,-146.61 189.63,-103.36 196.77,-81.09"/>
</g>
<!-- 5&#45;&#45;21 -->
<g id="edge51" class="edge">
<title>5&#45;&#45;21</title>
<path fill="none" stroke="grey" d="M170.75,-196.24C174.36,-203.17 178.79,-211.69 182.41,-218.63"/>
</g>
<!-- 5&#45;&#45;22 -->
<g id="edge52" class="edge">
<title>5&#45;&#45;22</title>
<path fill="none" stroke="grey" d="M164.7,-168.54C165.98,-141.18 168.72,-82.84 170,-55.38"/>
</g>
<!-- 5&#45;&#45;23 -->
<g id="edge53" class="edge">
<title>5&#45;&#45;23</title>
<path fill="none" stroke="grey" d="M158.96,-169.62C149.09,-142.96 127.36,-84.26 117.42,-57.4"/>
</g>
<!-- 5&#45;&#45;29 -->
<g id="edge54" class="edge">
<title>5&#45;&#45;29</title>
<path fill="none" stroke="grey" d="M153.94,-172.64C149.84,-168.32 145.13,-163.34 141.04,-159.03"/>
</g>
<!-- 6 -->
<g id="node7" class="node">
<title>6</title>
<ellipse fill="#ffffff" stroke="grey" cx="63.84" cy="-108.87" rx="14.5" ry="14.5"/>
<text text-anchor="middle" x="63.84" y="-105.17" font-family="Times New Roman,serif" font-size="14.00">6</text>
</g>
<!-- 6&#45;&#45;13 -->
<g id="edge55" class="edge">
<title>6&#45;&#45;13</title>
<path fill="none" stroke="grey" d="M61.54,-123.53C58.95,-140.09 54.76,-166.85 52.18,-183.29"/>
</g>
<!-- 6&#45;&#45;14 -->
<g id="edge56" class="edge">
<title>6&#45;&#45;14</title>
<path fill="none" stroke="grey" d="M72.44,-120.76C83.16,-135.56 101.34,-160.68 112.01,-175.41"/>
</g>
<!-- 6&#45;&#45;15 -->
<g id="edge57" class="edge">
<title>6&#45;&#45;15</title>
<path fill="none" stroke="grey" d="M70.5,-121.75C74.76,-130 80.27,-140.67 84.56,-148.96"/>
</g>
<!-- 6&#45;&#45;16 -->
<g id="edge58" class="edge">
<title>6&#45;&#45;16</title>
<path fill="none" stroke="grey" d="M66.77,-123.11C70.92,-143.27 78.47,-179.92 82.63,-200.14"/>
</g>
<!-- 6&#45;&#45;17 -->
<g id="edge59" class="edge">
<title>6&#45;&#45;17</title>
<path fill="none" stroke="grey" d="M60.18,-123.05C59.28,-126.56 58.31,-130.33 57.4,-133.85"/>
</g>
<!-- 6&#45;&#45;18 -->
<g id="edge60" class="edge">
<title>6&#45;&#45;18</title>
<path fill="none" stroke="grey" d="M71.39,-121.55C84.48,-143.55 111.25,-188.53 124.36,-210.56"/>
</g>
<!-- 6&#45;&#45;19 -->
<g id="edge61" class="edge">
<title>6&#45;&#45;19</title>
<path fill="none" stroke="grey" d="M77.94,-104.57C93.32,-99.89 117.78,-92.44 133.07,-87.78"/>
</g>
<!-- 6&#45;&#45;20 -->
<g id="edge62" class="edge">
<title>6&#45;&#45;20</title>
<path fill="none" stroke="grey" d="M77.77,-104.63C104.11,-96.63 160.92,-79.35 187.28,-71.34"/>
</g>
<!-- 6&#45;&#45;21 -->
<g id="edge63" class="edge">
<title>6&#45;&#45;21</title>
<path fill="none" stroke="grey" d="M74.52,-119.33C98.2,-142.53 154.85,-198.01 178.51,-221.18"/>
</g>
<!-- 6&#45;&#45;22 -->
<g id="edge64" class="edge">
<title>6&#45;&#45;22</title>
<path fill="none" stroke="grey" d="M76.1,-101.03C96.6,-87.91 137.63,-61.66 158.26,-48.46"/>
</g>
<!-- 6&#45;&#45;23 -->
<g id="edge65" class="edge">
<title>6&#45;&#45;23</title>
<path fill="none" stroke="grey" d="M72.49,-97.18C81.2,-85.42 94.56,-67.38 103.35,-55.51"/>
</g>
<!-- 6&#45;&#45;29 -->
<g id="edge66" class="edge">
<title>6&#45;&#45;29</title>
<path fill="none" stroke="grey" d="M76.48,-116.31C88.49,-123.39 106.45,-133.97 118.45,-141.04"/>
</g>
<!-- 7 -->
<g id="node8" class="node">
<title>7</title>
<ellipse fill="#ffffff" stroke="grey" cx="77.59" cy="-66.73" rx="14.5" ry="14.5"/>
<text text-anchor="middle" x="77.59" y="-63.03" font-family="Times New Roman,serif" font-size="14.00">7</text>
</g>
<!-- 8 -->
<g id="node9" class="node">
<title>8</title>
<ellipse fill="#ffffff" stroke="grey" cx="18.11" cy="-104.99" rx="14.5" ry="14.5"/>
<text text-anchor="middle" x="18.11" y="-101.29" font-family="Times New Roman,serif" font-size="14.00">8</text>
</g>
<!-- 7&#45;&#45;8 -->
<g id="edge67" class="edge">
<title>7&#45;&#45;8</title>
<path fill="none" stroke="grey" d="M65.27,-74.66C55.06,-81.22 40.62,-90.51 30.42,-97.08"/>
</g>
<!-- 7&#45;&#45;13 -->
<g id="edge68" class="edge">
<title>7&#45;&#45;13</title>
<path fill="none" stroke="grey" d="M74.58,-80.99C69.26,-106.18 58.26,-158.26 52.94,-183.43"/>
</g>
<!-- 7&#45;&#45;14 -->
<g id="edge69" class="edge">
<title>7&#45;&#45;14</title>
<path fill="none" stroke="grey" d="M82.52,-80.54C90.75,-103.65 107.23,-149.89 115.51,-173.14"/>
</g>
<!-- 7&#45;&#45;15 -->
<g id="edge70" class="edge">
<title>7&#45;&#45;15</title>
<path fill="none" stroke="grey" d="M79.68,-81.21C82.27,-99.14 86.64,-129.49 89.24,-147.48"/>
</g>
<!-- 7&#45;&#45;16 -->
<g id="edge71" class="edge">
<title>7&#45;&#45;16</title>
<path fill="none" stroke="grey" d="M78.39,-81.44C79.92,-109.76 83.27,-171.57 84.8,-199.85"/>
</g>
<!-- 7&#45;&#45;17 -->
<g id="edge72" class="edge">
<title>7&#45;&#45;17</title>
<path fill="none" stroke="grey" d="M73.43,-80.91C69.05,-95.85 62.19,-119.24 57.83,-134.12"/>
</g>
<!-- 7&#45;&#45;18 -->
<g id="edge73" class="edge">
<title>7&#45;&#45;18</title>
<path fill="none" stroke="grey" d="M82.42,-80.62C92.71,-110.26 116.71,-179.41 127.06,-209.22"/>
</g>
<!-- 7&#45;&#45;19 -->
<g id="edge74" class="edge">
<title>7&#45;&#45;19</title>
<path fill="none" stroke="grey" d="M91.97,-70.21C103.87,-73.1 120.71,-77.18 132.61,-80.07"/>
</g>
<!-- 7&#45;&#45;20 -->
<g id="edge75" class="edge">
<title>7&#45;&#45;20</title>
<path fill="none" stroke="grey" d="M92.26,-66.77C116.06,-66.84 162.81,-66.98 186.6,-67.05"/>
</g>
<!-- 7&#45;&#45;21 -->
<g id="edge76" class="edge">
<title>7&#45;&#45;21</title>
<path fill="none" stroke="grey" d="M85.8,-78.85C106.43,-109.35 160.3,-188.97 180.95,-219.48"/>
</g>
<!-- 7&#45;&#45;22 -->
<g id="edge77" class="edge">
<title>7&#45;&#45;22</title>
<path fill="none" stroke="grey" d="M91.73,-62.75C109.34,-57.79 139.21,-49.37 156.73,-44.44"/>
</g>
<!-- 7&#45;&#45;23 -->
<g id="edge78" class="edge">
<title>7&#45;&#45;23</title>
<path fill="none" stroke="grey" d="M89.72,-58.6C93,-56.4 96.55,-54.01 99.85,-51.8"/>
</g>
<!-- 7&#45;&#45;29 -->
<g id="edge79" class="edge">
<title>7&#45;&#45;29</title>
<path fill="none" stroke="grey" d="M85.71,-79.14C95.81,-94.59 112.96,-120.81 123.01,-136.19"/>
</g>
<!-- 8&#45;&#45;13 -->
<g id="edge80" class="edge">
<title>8&#45;&#45;13</title>
<path fill="none" stroke="grey" d="M22.94,-119.07C28.96,-136.59 39.17,-166.33 45.16,-183.77"/>
</g>
<!-- 8&#45;&#45;14 -->
<g id="edge81" class="edge">
<title>8&#45;&#45;14</title>
<path fill="none" stroke="grey" d="M29.46,-114.1C49.14,-129.9 89.39,-162.19 109.11,-178.01"/>
</g>
<!-- 8&#45;&#45;15 -->
<g id="edge82" class="edge">
<title>8&#45;&#45;15</title>
<path fill="none" stroke="grey" d="M29.55,-113.92C43.23,-124.58 65.99,-142.33 79.74,-153.05"/>
</g>
<!-- 8&#45;&#45;16 -->
<g id="edge83" class="edge">
<title>8&#45;&#45;16</title>
<path fill="none" stroke="grey" d="M25.85,-117.56C38.87,-138.68 64.98,-181.06 77.94,-202.08"/>
</g>
<!-- 8&#45;&#45;17 -->
<g id="edge84" class="edge">
<title>8&#45;&#45;17</title>
<path fill="none" stroke="grey" d="M27.47,-116.33C32.66,-122.62 39.1,-130.43 44.3,-136.73"/>
</g>
<!-- 8&#45;&#45;18 -->
<g id="edge85" class="edge">
<title>8&#45;&#45;18</title>
<path fill="none" stroke="grey" d="M28.21,-115.49C49.76,-137.89 100.03,-190.13 121.7,-212.66"/>
</g>
<!-- 8&#45;&#45;19 -->
<g id="edge86" class="edge">
<title>8&#45;&#45;19</title>
<path fill="none" stroke="grey" d="M32.89,-102.53C57.75,-98.4 107.62,-90.1 132.36,-85.98"/>
</g>
<!-- 8&#45;&#45;20 -->
<g id="edge87" class="edge">
<title>8&#45;&#45;20</title>
<path fill="none" stroke="grey" d="M32.48,-102.02C66.72,-94.93 152.78,-77.12 186.95,-70.05"/>
</g>
<!-- 8&#45;&#45;21 -->
<g id="edge88" class="edge">
<title>8&#45;&#45;21</title>
<path fill="none" stroke="grey" d="M29.87,-113.7C61.12,-136.83 145.98,-199.65 177.33,-222.86"/>
</g>
<!-- 8&#45;&#45;22 -->
<g id="edge89" class="edge">
<title>8&#45;&#45;22</title>
<path fill="none" stroke="grey" d="M31.65,-99.27C60.54,-87.06 127.92,-58.58 156.97,-46.3"/>
</g>
<!-- 8&#45;&#45;23 -->
<g id="edge90" class="edge">
<title>8&#45;&#45;23</title>
<path fill="none" stroke="grey" d="M30.42,-96.95C48.46,-85.16 81.9,-63.31 99.95,-51.52"/>
</g>
<!-- 8&#45;&#45;29 -->
<g id="edge91" class="edge">
<title>8&#45;&#45;29</title>
<path fill="none" stroke="grey" d="M31.96,-110.32C53.75,-118.71 95.78,-134.89 117.42,-143.21"/>
</g>
<!-- 9 -->
<g id="node10" class="node">
<title>9</title>
<ellipse fill="#ffffff" stroke="grey" cx="108.75" cy="-111.08" rx="14.5" ry="14.5"/>
<text text-anchor="middle" x="108.75" y="-107.38" font-family="Times New Roman,serif" font-size="14.00">9</text>
</g>
<!-- 9&#45;&#45;13 -->
<g id="edge92" class="edge">
<title>9&#45;&#45;13</title>
<path fill="none" stroke="grey" d="M100.57,-123.13C89.4,-139.58 69.47,-168.92 58.23,-185.46"/>
</g>
<!-- 9&#45;&#45;14 -->
<g id="edge93" class="edge">
<title>9&#45;&#45;14</title>
<path fill="none" stroke="grey" d="M111.02,-125.75C113.12,-139.31 116.21,-159.34 118.29,-172.8"/>
</g>
<!-- 9&#45;&#45;15 -->
<g id="edge94" class="edge">
<title>9&#45;&#45;15</title>
<path fill="none" stroke="grey" d="M104,-125.02C101.54,-132.22 98.55,-140.98 96.1,-148.18"/>
</g>
<!-- 9&#45;&#45;16 -->
<g id="edge95" class="edge">
<title>9&#45;&#45;16</title>
<path fill="none" stroke="grey" d="M105.53,-125.46C101.11,-145.22 93.19,-180.55 88.78,-200.24"/>
</g>
<!-- 9&#45;&#45;17 -->
<g id="edge96" class="edge">
<title>9&#45;&#45;17</title>
<path fill="none" stroke="grey" d="M96.54,-119.31C87.42,-125.45 75.01,-133.8 65.9,-139.94"/>
</g>
<!-- 9&#45;&#45;18 -->
<g id="edge97" class="edge">
<title>9&#45;&#45;18</title>
<path fill="none" stroke="grey" d="M111.69,-125.3C116.13,-146.77 124.49,-187.24 128.96,-208.85"/>
</g>
<!-- 9&#45;&#45;19 -->
<g id="edge98" class="edge">
<title>9&#45;&#45;19</title>
<path fill="none" stroke="grey" d="M120.84,-102.37C125.39,-99.1 130.56,-95.38 135.09,-92.11"/>
</g>
<!-- 9&#45;&#45;20 -->
<g id="edge99" class="edge">
<title>9&#45;&#45;20</title>
<path fill="none" stroke="grey" d="M122.01,-104.78C139.59,-96.42 170.45,-81.74 188.03,-73.38"/>
</g>
<!-- 9&#45;&#45;21 -->
<g id="edge100" class="edge">
<title>9&#45;&#45;21</title>
<path fill="none" stroke="grey" d="M117.06,-123.53C132.55,-146.75 165.66,-196.39 181.03,-219.42"/>
</g>
<!-- 9&#45;&#45;22 -->
<g id="edge101" class="edge">
<title>9&#45;&#45;22</title>
<path fill="none" stroke="grey" d="M118.43,-100.06C130,-86.87 149.26,-64.94 160.89,-51.68"/>
</g>
<!-- 9&#45;&#45;23 -->
<g id="edge102" class="edge">
<title>9&#45;&#45;23</title>
<path fill="none" stroke="grey" d="M109.52,-96.41C110.1,-85.07 110.91,-69.45 111.5,-58.12"/>
</g>
<!-- 24 -->
<g id="node25" class="node">
<title>24</title>
<ellipse fill="#ffffff" stroke="grey" cx="249.13" cy="-53.86" rx="14.5" ry="14.5"/>
<text text-anchor="middle" x="249.13" y="-50.16" font-family="Times New Roman,serif" font-size="14.00">24</text>
</g>
<!-- 9&#45;&#45;24 -->
<g id="edge103" class="edge">
<title>9&#45;&#45;24</title>
<path fill="none" stroke="grey" d="M122.21,-105.6C148.98,-94.69 208.61,-70.38 235.5,-59.42"/>
</g>
<!-- 9&#45;&#45;29 -->
<g id="edge104" class="edge">
<title>9&#45;&#45;29</title>
<path fill="none" stroke="grey" d="M116.29,-123.73C118.62,-127.63 121.17,-131.92 123.49,-135.81"/>
</g>
<!-- 10 -->
<g id="node11" class="node">
<title>10</title>
<ellipse fill="#ffffff" stroke="grey" cx="210.28" cy="-110.19" rx="14.5" ry="14.5"/>
<text text-anchor="middle" x="210.28" y="-106.49" font-family="Times New Roman,serif" font-size="14.00">10</text>
</g>
<!-- 10&#45;&#45;13 -->
<g id="edge105" class="edge">
<title>10&#45;&#45;13</title>
<path fill="none" stroke="grey" d="M197.43,-117.21C167.4,-133.59 92.93,-174.22 62.84,-190.64"/>
</g>
<!-- 10&#45;&#45;14 -->
<g id="edge106" class="edge">
<title>10&#45;&#45;14</title>
<path fill="none" stroke="grey" d="M198.91,-119.94C181.64,-134.75 149,-162.73 131.79,-177.49"/>
</g>
<!-- 10&#45;&#45;15 -->
<g id="edge107" class="edge">
<title>10&#45;&#45;15</title>
<path fill="none" stroke="grey" d="M196.63,-116.15C173.69,-126.16 127.66,-146.25 104.83,-156.21"/>
</g>
<!-- 10&#45;&#45;16 -->
<g id="edge108" class="edge">
<title>10&#45;&#45;16</title>
<path fill="none" stroke="grey" d="M198.77,-119.82C175.02,-139.69 120.8,-185.05 97.07,-204.9"/>
</g>
<!-- 10&#45;&#45;17 -->
<g id="edge109" class="edge">
<title>10&#45;&#45;17</title>
<path fill="none" stroke="grey" d="M196.11,-113.63C166.45,-120.82 98.12,-137.38 68.2,-144.63"/>
</g>
<!-- 10&#45;&#45;18 -->
<g id="edge110" class="edge">
<title>10&#45;&#45;18</title>
<path fill="none" stroke="grey" d="M201.9,-122.3C186.82,-144.07 155.3,-189.58 140.27,-211.29"/>
</g>
<!-- 10&#45;&#45;19 -->
<g id="edge111" class="edge">
<title>10&#45;&#45;19</title>
<path fill="none" stroke="grey" d="M196.85,-104.54C186.11,-100.02 171.11,-93.71 160.37,-89.19"/>
</g>
<!-- 10&#45;&#45;20 -->
<g id="edge112" class="edge">
<title>10&#45;&#45;20</title>
<path fill="none" stroke="grey" d="M207.22,-95.6C206.26,-91.01 205.2,-85.95 204.24,-81.38"/>
</g>
<!-- 10&#45;&#45;21 -->
<g id="edge113" class="edge">
<title>10&#45;&#45;21</title>
<path fill="none" stroke="grey" d="M207.77,-124.6C203.71,-147.97 195.73,-193.88 191.67,-217.23"/>
</g>
<!-- 10&#45;&#45;22 -->
<g id="edge114" class="edge">
<title>10&#45;&#45;22</title>
<path fill="none" stroke="grey" d="M203.02,-97.41C195.88,-84.84 185.04,-65.75 177.91,-53.2"/>
</g>
<!-- 10&#45;&#45;23 -->
<g id="edge115" class="edge">
<title>10&#45;&#45;23</title>
<path fill="none" stroke="grey" d="M198.26,-102.01C179.45,-89.21 143.25,-64.57 124.38,-51.72"/>
</g>
<!-- 10&#45;&#45;24 -->
<g id="edge116" class="edge">
<title>10&#45;&#45;24</title>
<path fill="none" stroke="grey" d="M218.52,-98.25C225.02,-88.82 234.06,-75.71 240.63,-66.18"/>
</g>
<!-- 25 -->
<g id="node26" class="node">
<title>25</title>
<ellipse fill="#ffffff" stroke="grey" cx="241.43" cy="-248.8" rx="14.5" ry="14.5"/>
<text text-anchor="middle" x="241.43" y="-245.1" font-family="Times New Roman,serif" font-size="14.00">25</text>
</g>
<!-- 10&#45;&#45;25 -->
<g id="edge117" class="edge">
<title>10&#45;&#45;25</title>
<path fill="none" stroke="grey" d="M213.49,-124.51C219.46,-151.06 232.19,-207.7 238.19,-234.36"/>
</g>
<!-- 10&#45;&#45;29 -->
<g id="edge118" class="edge">
<title>10&#45;&#45;29</title>
<path fill="none" stroke="grey" d="M197.19,-116.51C182.51,-123.6 158.83,-135.03 144.13,-142.12"/>
</g>
<!-- 11 -->
<g id="node12" class="node">
<title>11</title>
<ellipse fill="#ffffff" stroke="grey" cx="217.42" cy="-183.77" rx="14.5" ry="14.5"/>
<text text-anchor="middle" x="217.42" y="-180.07" font-family="Times New Roman,serif" font-size="14.00">11</text>
</g>
<!-- 11&#45;&#45;13 -->
<g id="edge119" class="edge">
<title>11&#45;&#45;13</title>
<path fill="none" stroke="grey" d="M202.85,-184.98C171.17,-187.61 96.34,-193.82 64.59,-196.46"/>
</g>
<!-- 11&#45;&#45;14 -->
<g id="edge120" class="edge">
<title>11&#45;&#45;14</title>
<path fill="none" stroke="grey" d="M202.7,-184.28C184.38,-184.92 153.28,-186.01 135.05,-186.65"/>
</g>
<!-- 11&#45;&#45;15 -->
<g id="edge121" class="edge">
<title>11&#45;&#45;15</title>
<path fill="none" stroke="grey" d="M202.95,-181.28C178.64,-177.1 129.84,-168.72 105.64,-164.56"/>
</g>
<!-- 11&#45;&#45;16 -->
<g id="edge122" class="edge">
<title>11&#45;&#45;16</title>
<path fill="none" stroke="grey" d="M203.06,-187.11C177.7,-193.02 125.28,-205.25 99.93,-211.16"/>
</g>
<!-- 11&#45;&#45;17 -->
<g id="edge123" class="edge">
<title>11&#45;&#45;17</title>
<path fill="none" stroke="grey" d="M203.18,-180.67C172.22,-173.93 99.08,-158.01 68.04,-151.26"/>
</g>
<!-- 11&#45;&#45;18 -->
<g id="edge124" class="edge">
<title>11&#45;&#45;18</title>
<path fill="none" stroke="grey" d="M204.06,-189.94C188.01,-197.37 161.22,-209.76 145.21,-217.17"/>
</g>
<!-- 11&#45;&#45;19 -->
<g id="edge125" class="edge">
<title>11&#45;&#45;19</title>
<path fill="none" stroke="grey" d="M209.06,-171.88C195.5,-152.59 168.87,-114.7 155.31,-95.43"/>
</g>
<!-- 11&#45;&#45;20 -->
<g id="edge126" class="edge">
<title>11&#45;&#45;20</title>
<path fill="none" stroke="grey" d="M215.37,-168.99C212.26,-146.55 206.38,-104.12 203.28,-81.75"/>
</g>
<!-- 11&#45;&#45;21 -->
<g id="edge127" class="edge">
<title>11&#45;&#45;21</title>
<path fill="none" stroke="grey" d="M209.99,-196.34C205.87,-203.32 200.76,-211.97 196.64,-218.96"/>
</g>
<!-- 11&#45;&#45;22 -->
<g id="edge128" class="edge">
<title>11&#45;&#45;22</title>
<path fill="none" stroke="grey" d="M212.85,-169.77C203.9,-142.31 184.13,-81.68 175.22,-54.34"/>
</g>
<!-- 11&#45;&#45;23 -->
<g id="edge129" class="edge">
<title>11&#45;&#45;23</title>
<path fill="none" stroke="grey" d="M208.45,-171.8C188.58,-145.3 141.05,-81.88 121.21,-55.41"/>
</g>
<!-- 11&#45;&#45;24 -->
<g id="edge130" class="edge">
<title>11&#45;&#45;24</title>
<path fill="none" stroke="grey" d="M220.87,-169.62C226.97,-144.63 239.58,-92.97 245.68,-67.99"/>
</g>
<!-- 11&#45;&#45;25 -->
<g id="edge131" class="edge">
<title>11&#45;&#45;25</title>
<path fill="none" stroke="grey" d="M222.51,-197.56C226.59,-208.59 232.27,-223.99 236.35,-235.02"/>
</g>
<!-- 26 -->
<g id="node27" class="node">
<title>26</title>
<ellipse fill="#ffffff" stroke="grey" cx="257.16" cy="-193.81" rx="14.5" ry="14.5"/>
<text text-anchor="middle" x="257.16" y="-190.11" font-family="Times New Roman,serif" font-size="14.00">26</text>
</g>
<!-- 11&#45;&#45;26 -->
<g id="edge132" class="edge">
<title>11&#45;&#45;26</title>
<path fill="none" stroke="grey" d="M231.77,-187.39C235.41,-188.31 239.33,-189.3 242.97,-190.22"/>
</g>
<!-- 11&#45;&#45;29 -->
<g id="edge133" class="edge">
<title>11&#45;&#45;29</title>
<path fill="none" stroke="grey" d="M203.92,-178.25C187.78,-171.65 160.93,-160.68 144.72,-154.05"/>
</g>
<!-- 12 -->
<g id="node13" class="node">
<title>12</title>
<ellipse fill="#ffffff" stroke="grey" cx="194.97" cy="-150.92" rx="14.5" ry="14.5"/>
<text text-anchor="middle" x="194.97" y="-147.22" font-family="Times New Roman,serif" font-size="14.00">12</text>
</g>
<!-- 12&#45;&#45;13 -->
<g id="edge134" class="edge">
<title>12&#45;&#45;13</title>
<path fill="none" stroke="grey" d="M181.06,-155.4C153.41,-164.32 91.8,-184.18 64.01,-193.14"/>
</g>
<!-- 12&#45;&#45;14 -->
<g id="edge135" class="edge">
<title>12&#45;&#45;14</title>
<path fill="none" stroke="grey" d="M181.66,-157.4C168.1,-163.99 147.22,-174.16 133.71,-180.74"/>
</g>
<!-- 12&#45;&#45;15 -->
<g id="edge136" class="edge">
<title>12&#45;&#45;15</title>
<path fill="none" stroke="grey" d="M180.12,-152.52C160.31,-154.66 125.45,-158.42 105.83,-160.54"/>
</g>
<!-- 12&#45;&#45;16 -->
<g id="edge137" class="edge">
<title>12&#45;&#45;16</title>
<path fill="none" stroke="grey" d="M182.42,-158.21C161.43,-170.41 119.44,-194.82 98.33,-207.09"/>
</g>
<!-- 12&#45;&#45;17 -->
<g id="edge138" class="edge">
<title>12&#45;&#45;17</title>
<path fill="none" stroke="grey" d="M180.38,-150.63C153.32,-150.1 95.6,-148.96 68.44,-148.43"/>
</g>
<!-- 12&#45;&#45;18 -->
<g id="edge139" class="edge">
<title>12&#45;&#45;18</title>
<path fill="none" stroke="grey" d="M185.4,-161.91C173.55,-175.52 153.5,-198.55 141.61,-212.21"/>
</g>
<!-- 12&#45;&#45;19 -->
<g id="edge140" class="edge">
<title>12&#45;&#45;19</title>
<path fill="none" stroke="grey" d="M186.39,-138.87C177.65,-126.61 164.18,-107.72 155.47,-95.49"/>
</g>
<!-- 12&#45;&#45;20 -->
<g id="edge141" class="edge">
<title>12&#45;&#45;20</title>
<path fill="none" stroke="grey" d="M196.06,-136.32C197.21,-121.02 199,-97.14 200.15,-81.81"/>
</g>
<!-- 12&#45;&#45;21 -->
<g id="edge142" class="edge">
<title>12&#45;&#45;21</title>
<path fill="none" stroke="grey" d="M193.9,-165.72C192.86,-180.28 191.27,-202.38 190.22,-216.91"/>
</g>
<!-- 12&#45;&#45;22 -->
<g id="edge143" class="edge">
<title>12&#45;&#45;22</title>
<path fill="none" stroke="grey" d="M191.79,-136.48C187.14,-115.32 178.53,-76.1 173.87,-54.94"/>
</g>
<!-- 12&#45;&#45;23 -->
<g id="edge144" class="edge">
<title>12&#45;&#45;23</title>
<path fill="none" stroke="grey" d="M186.12,-139.42C170.28,-118.85 137.27,-75.96 121.3,-55.22"/>
</g>
<!-- 12&#45;&#45;24 -->
<g id="edge145" class="edge">
<title>12&#45;&#45;24</title>
<path fill="none" stroke="grey" d="M202.05,-138.23C212.43,-119.63 231.67,-85.16 242.05,-66.55"/>
</g>
<!-- 12&#45;&#45;25 -->
<g id="edge146" class="edge">
<title>12&#45;&#45;25</title>
<path fill="none" stroke="grey" d="M201.23,-164.12C210.1,-182.8 226.22,-216.76 235.12,-235.49"/>
</g>
<!-- 12&#45;&#45;26 -->
<g id="edge147" class="edge">
<title>12&#45;&#45;26</title>
<path fill="none" stroke="grey" d="M206.96,-159.19C217.97,-166.78 234.21,-177.98 245.21,-185.56"/>
</g>
<!-- 12&#45;&#45;29 -->
<g id="edge148" class="edge">
<title>12&#45;&#45;29</title>
<path fill="none" stroke="grey" d="M180.46,-150.36C170.14,-149.96 156.33,-149.43 145.92,-149.02"/>
</g>
<!-- 13&#45;&#45;14 -->
<g id="edge149" class="edge">
<title>13&#45;&#45;14</title>
<path fill="none" stroke="grey" d="M64.55,-195.5C76.67,-193.7 93.8,-191.14 105.9,-189.34"/>
</g>
<!-- 13&#45;&#45;29 -->
<g id="edge150" class="edge">
<title>13&#45;&#45;29</title>
<path fill="none" stroke="grey" d="M62.6,-189.99C77.84,-180.74 103.25,-165.31 118.45,-156.09"/>
</g>
<!-- 14&#45;&#45;29 -->
<g id="edge151" class="edge">
<title>14&#45;&#45;29</title>
<path fill="none" stroke="grey" d="M124.43,-172.75C125.34,-169.39 126.31,-165.83 127.21,-162.49"/>
</g>
<!-- 15&#45;&#45;29 -->
<g id="edge152" class="edge">
<title>15&#45;&#45;29</title>
<path fill="none" stroke="grey" d="M105.22,-157.33C109.07,-156 113.24,-154.57 117.09,-153.24"/>
</g>
<!-- 16&#45;&#45;17 -->
<g id="edge153" class="edge">
<title>16&#45;&#45;17</title>
<path fill="none" stroke="grey" d="M79.29,-201.39C73.71,-189.76 65.59,-172.85 60,-161.22"/>
</g>
<!-- 16&#45;&#45;29 -->
<g id="edge154" class="edge">
<title>16&#45;&#45;29</title>
<path fill="none" stroke="grey" d="M93.92,-202.38C102.12,-190.47 114.57,-172.38 122.75,-160.49"/>
</g>
<!-- 17&#45;&#45;29 -->
<g id="edge155" class="edge">
<title>17&#45;&#45;29</title>
<path fill="none" stroke="grey" d="M68.26,-148.2C82,-148.25 102.49,-148.34 116.29,-148.39"/>
</g>
<!-- 18&#45;&#45;29 -->
<g id="edge156" class="edge">
<title>18&#45;&#45;29</title>
<path fill="none" stroke="grey" d="M131.77,-208.52C131.6,-195.31 131.37,-176.07 131.21,-162.95"/>
</g>
<!-- 19&#45;&#45;29 -->
<g id="edge157" class="edge">
<title>19&#45;&#45;29</title>
<path fill="none" stroke="grey" d="M143.51,-97.63C140.87,-108.37 137.25,-123.11 134.59,-133.95"/>
</g>
<!-- 20&#45;&#45;29 -->
<g id="edge158" class="edge">
<title>20&#45;&#45;29</title>
<path fill="none" stroke="grey" d="M191.49,-78.4C178.07,-93.95 154.08,-121.74 140.71,-137.23"/>
</g>
<!-- 21&#45;&#45;29 -->
<g id="edge159" class="edge">
<title>21&#45;&#45;29</title>
<path fill="none" stroke="grey" d="M180.84,-219.7C169.78,-203.89 150.39,-176.14 139.34,-160.34"/>
</g>
<!-- 22&#45;&#45;29 -->
<g id="edge160" class="edge">
<title>22&#45;&#45;29</title>
<path fill="none" stroke="grey" d="M165.68,-54.17C158.09,-74.82 143.78,-113.76 136.14,-134.55"/>
</g>
<!-- 23&#45;&#45;29 -->
<g id="edge161" class="edge">
<title>23&#45;&#45;29</title>
<path fill="none" stroke="grey" d="M114.87,-58.07C118.46,-78.13 124.87,-113.99 128.44,-133.98"/>
</g>
<!-- 24&#45;&#45;29 -->
<g id="edge162" class="edge">
<title>24&#45;&#45;29</title>
<path fill="none" stroke="grey" d="M237.81,-62.93C215.29,-80.96 165.12,-121.14 142.49,-139.27"/>
</g>
<!-- 25&#45;&#45;29 -->
<g id="edge163" class="edge">
<title>25&#45;&#45;29</title>
<path fill="none" stroke="grey" d="M230.44,-238.81C209.28,-219.57 163.1,-177.6 141.97,-158.4"/>
</g>
<!-- 26&#45;&#45;29 -->
<g id="edge164" class="edge">
<title>26&#45;&#45;29</title>
<path fill="none" stroke="grey" d="M243.18,-188.78C218.81,-180.02 168.83,-162.05 144.69,-153.36"/>
</g>
<!-- 27 -->
<g id="node28" class="node">
<title>27</title>
<ellipse fill="#ffffff" stroke="grey" cx="254.27" cy="-125.14" rx="14.5" ry="14.5"/>
<text text-anchor="middle" x="254.27" y="-121.44" font-family="Times New Roman,serif" font-size="14.00">27</text>
</g>
<!-- 27&#45;&#45;29 -->
<g id="edge165" class="edge">
<title>27&#45;&#45;29</title>
<path fill="none" stroke="grey" d="M239.65,-127.91C215.93,-132.39 169.34,-141.2 145.63,-145.69"/>
</g>
<!-- 28 -->
<g id="node29" class="node">
<title>28</title>
<ellipse fill="#ffffff" stroke="grey" cx="29.09" cy="-47.61" rx="14.5" ry="14.5"/>
<text text-anchor="middle" x="29.09" y="-43.91" font-family="Times New Roman,serif" font-size="14.00">28</text>
</g>
<!-- 28&#45;&#45;29 -->
<g id="edge166" class="edge">
<title>28&#45;&#45;29</title>
<path fill="none" stroke="grey" d="M39.61,-58.02C59.25,-77.44 101.24,-118.98 120.71,-138.24"/>
</g>
</g>
</svg>
