<?xml version="1.0" encoding="UTF-8" standalone="no"?>
<!DOCTYPE svg PUBLIC "-//W3C//DTD SVG 1.1//EN"
 "http://www.w3.org/Graphics/SVG/1.1/DTD/svg11.dtd">
<!-- Generated by graphviz version 3.0.0 (20220226.1711)
 -->
<!-- Title: Terminal 1 Pages: 1 -->
<svg width="151pt" height="195pt"
 viewBox="0.00 0.00 151.00 195.00" xmlns="http://www.w3.org/2000/svg" xmlns:xlink="http://www.w3.org/1999/xlink">
<g id="graph0" class="graph" transform="scale(1 1) rotate(0) translate(4 191)">
<title>Terminal 1</title>
<polygon fill="transparent" stroke="transparent" points="-4,4 -4,-191 147,-191 147,4 -4,4"/>
<text text-anchor="middle" x="71.5" y="-9.2" font-family="Times New Roman,serif" font-size="16.00" fill="grey">Terminal 1</text>
<!-- 0 -->
<g id="node1" class="node">
<title>0</title>
<ellipse fill="#ffffff" stroke="grey" cx="128.5" cy="-172.5" rx="14.5" ry="14.5"/>
<text text-anchor="middle" x="128.5" y="-168.8" font-family="Times New Roman,serif" font-size="14.00">0</text>
</g>
<!-- 1 -->
<g id="node2" class="node">
<title>1</title>
<ellipse fill="#ffffff" stroke="grey" cx="20.5" cy="-58.5" rx="14.5" ry="14.5"/>
<text text-anchor="middle" x="20.5" y="-54.8" font-family="Times New Roman,serif" font-size="14.00">1</text>
</g>
<!-- 2 -->
<g id="node3" class="node">
<title>2</title>
<ellipse fill="#00ff8c" stroke="grey" cx="64.9" cy="-115.18" rx="14.5" ry="14.5"/>
<text text-anchor="middle" x="64.9" y="-111.48" font-family="Times New Roman,serif" font-size="14.00">2</text>
</g>
<!-- 1&#45;&#45;2 -->
<g id="edge1" class="edge">
<title>1&#45;&#45;2</title>
<path fill="none" stroke="grey" d="M29.49,-69.97C37.19,-79.8 48.23,-93.9 55.93,-103.73"/>
</g>
<!-- 3 -->
<g id="node4" class="node">
<title>3</title>
<ellipse fill="#ffffff" stroke="grey" cx="74.5" cy="-64.5" rx="14.5" ry="14.5"/>
<text text-anchor="middle" x="74.5" y="-60.8" font-family="Times New Roman,serif" font-size="14.00">3</text>
</g>
<!-- 4 -->
<g id="node5" class="node">
<title>4</title>
<ellipse fill="#ffffff" stroke="grey" cx="14.5" cy="-154.5" rx="14.5" ry="14.5"/>
<text text-anchor="middle" x="14.5" y="-150.8" font-family="Times New Roman,serif" font-size="14.00">4</text>
</g>
<!-- 5 -->
<g id="node6" class="node">
<title>5</title>
<ellipse fill="#ffffff" stroke="grey" cx="116.5" cy="-118.5" rx="14.5" ry="14.5"/>
<text text-anchor="middle" x="116.5" y="-114.8" font-family="Times New Roman,serif" font-size="14.00">5</text>
</g>
<!-- 6 -->
<g id="node7" class="node">
<title>6</title>
<ellipse fill="#ffffff" stroke="grey" cx="128.5" cy="-40.5" rx="14.5" ry="14.5"/>
<text text-anchor="middle" x="128.5" y="-36.8" font-family="Times New Roman,serif" font-size="14.00">6</text>
</g>
</g>
</svg>
