<?xml version="1.0" encoding="UTF-8" standalone="no"?>
<!DOCTYPE svg PUBLIC "-//W3C//DTD SVG 1.1//EN"
 "http://www.w3.org/Graphics/SVG/1.1/DTD/svg11.dtd">
<!-- Generated by graphviz version 3.0.0 (20220226.1711)
 -->
<!-- Title: Terminal 2 Pages: 1 -->
<svg width="495pt" height="543pt"
 viewBox="0.00 0.00 495.40 542.68" xmlns="http://www.w3.org/2000/svg" xmlns:xlink="http://www.w3.org/1999/xlink">
<g id="graph0" class="graph" transform="scale(1 1) rotate(0) translate(4 538.68)">
<title>Terminal 2</title>
<polygon fill="transparent" stroke="transparent" points="-4,4 -4,-538.68 491.4,-538.68 491.4,4 -4,4"/>
<text text-anchor="middle" x="243.7" y="-9.2" font-family="Times New Roman,serif" font-size="16.00" fill="grey">Terminal 2</text>
<!-- 0 -->
<g id="node1" class="node">
<title>0</title>
<ellipse fill="#ffffff" stroke="grey" cx="293.5" cy="-463.5" rx="14.5" ry="14.5"/>
<text text-anchor="middle" x="293.5" y="-459.8" font-family="Times New Roman,serif" font-size="14.00">0</text>
</g>
<!-- 1 -->
<g id="node2" class="node">
<title>1</title>
<ellipse fill="#ffba00" stroke="grey" cx="337.9" cy="-520.18" rx="14.5" ry="14.5"/>
<text text-anchor="middle" x="337.9" y="-516.48" font-family="Times New Roman,serif" font-size="14.00">1</text>
</g>
<!-- 0&#45;&#45;1 -->
<g id="edge1" class="edge">
<title>0&#45;&#45;1</title>
<path fill="none" stroke="grey" d="M302.49,-474.97C310.19,-484.8 321.23,-498.9 328.93,-508.73"/>
</g>
<!-- 2 -->
<g id="node3" class="node">
<title>2</title>
<ellipse fill="#ffffff" stroke="grey" cx="14.5" cy="-418.5" rx="14.5" ry="14.5"/>
<text text-anchor="middle" x="14.5" y="-414.8" font-family="Times New Roman,serif" font-size="14.00">2</text>
</g>
<!-- 3 -->
<g id="node4" class="node">
<title>3</title>
<ellipse fill="#ffffff" stroke="grey" cx="257.5" cy="-175.5" rx="14.5" ry="14.5"/>
<text text-anchor="middle" x="257.5" y="-171.8" font-family="Times New Roman,serif" font-size="14.00">3</text>
</g>
<!-- 4 -->
<g id="node5" class="node">
<title>4</title>
<ellipse fill="#ffba00" stroke="grey" cx="292.41" cy="-238.3" rx="14.5" ry="14.5"/>
<text text-anchor="middle" x="292.41" y="-234.6" font-family="Times New Roman,serif" font-size="14.00">4</text>
</g>
<!-- 3&#45;&#45;4 -->
<g id="edge2" class="edge">
<title>3&#45;&#45;4</title>
<path fill="none" stroke="grey" d="M264.56,-188.21C270.62,-199.1 279.3,-214.72 285.36,-225.61"/>
</g>
<!-- 5 -->
<g id="node6" class="node">
<title>5</title>
<ellipse fill="#5cff00" stroke="grey" cx="329.7" cy="-176.78" rx="14.5" ry="14.5"/>
<text text-anchor="middle" x="329.7" y="-173.08" font-family="Times New Roman,serif" font-size="14.00">5</text>
</g>
<!-- 3&#45;&#45;5 -->
<g id="edge3" class="edge">
<title>3&#45;&#45;5</title>
<path fill="none" stroke="grey" d="M272.11,-175.76C284.64,-175.98 302.59,-176.3 315.11,-176.52"/>
</g>
<!-- 4&#45;&#45;5 -->
<g id="edge4" class="edge">
<title>4&#45;&#45;5</title>
<path fill="none" stroke="grey" d="M299.96,-225.85C306.42,-215.18 315.7,-199.88 322.16,-189.21"/>
</g>
<!-- 6 -->
<g id="node7" class="node">
<title>6</title>
<ellipse fill="#ffffff" stroke="grey" cx="23.5" cy="-148.5" rx="14.5" ry="14.5"/>
<text text-anchor="middle" x="23.5" y="-144.8" font-family="Times New Roman,serif" font-size="14.00">6</text>
</g>
<!-- 7 -->
<g id="node8" class="node">
<title>7</title>
<ellipse fill="#ffffff" stroke="grey" cx="185.65" cy="-315.44" rx="14.5" ry="14.5"/>
<text text-anchor="middle" x="185.65" y="-311.74" font-family="Times New Roman,serif" font-size="14.00">7</text>
</g>
<!-- 8 -->
<g id="node9" class="node">
<title>8</title>
<ellipse fill="#ffba00" stroke="grey" cx="218.8" cy="-346.48" rx="14.5" ry="14.5"/>
<text text-anchor="middle" x="218.8" y="-342.78" font-family="Times New Roman,serif" font-size="14.00">8</text>
</g>
<!-- 7&#45;&#45;8 -->
<g id="edge5" class="edge">
<title>7&#45;&#45;8</title>
<path fill="none" stroke="grey" d="M196.51,-325.6C200.13,-328.99 204.17,-332.78 207.81,-336.18"/>
</g>
<!-- 9 -->
<g id="node10" class="node">
<title>9</title>
<ellipse fill="#5cff00" stroke="grey" cx="242.26" cy="-301.5" rx="14.5" ry="14.5"/>
<text text-anchor="middle" x="242.26" y="-297.8" font-family="Times New Roman,serif" font-size="14.00">9</text>
</g>
<!-- 7&#45;&#45;9 -->
<g id="edge6" class="edge">
<title>7&#45;&#45;9</title>
<path fill="none" stroke="grey" d="M199.94,-311.92C208.58,-309.79 219.57,-307.09 228.18,-304.97"/>
</g>
<!-- 10 -->
<g id="node11" class="node">
<title>10</title>
<ellipse fill="#00ff8c" stroke="grey" cx="241.89" cy="-391.77" rx="14.5" ry="14.5"/>
<text text-anchor="middle" x="241.89" y="-388.07" font-family="Times New Roman,serif" font-size="14.00">10</text>
</g>
<!-- 7&#45;&#45;10 -->
<g id="edge7" class="edge">
<title>7&#45;&#45;10</title>
<path fill="none" stroke="grey" d="M194.44,-327.36C205,-341.7 222.63,-365.62 233.16,-379.93"/>
</g>
<!-- 11 -->
<g id="node12" class="node">
<title>11</title>
<ellipse fill="#008fff" stroke="grey" cx="272.35" cy="-346.79" rx="14.5" ry="14.5"/>
<text text-anchor="middle" x="272.35" y="-343.09" font-family="Times New Roman,serif" font-size="14.00">11</text>
</g>
<!-- 7&#45;&#45;11 -->
<g id="edge8" class="edge">
<title>7&#45;&#45;11</title>
<path fill="none" stroke="grey" d="M199.58,-320.47C215.76,-326.32 242.29,-335.92 258.46,-341.76"/>
</g>
<!-- 12 -->
<g id="node13" class="node">
<title>12</title>
<ellipse fill="#5a00ff" stroke="grey" cx="185.5" cy="-377.49" rx="14.5" ry="14.5"/>
<text text-anchor="middle" x="185.5" y="-373.79" font-family="Times New Roman,serif" font-size="14.00">12</text>
</g>
<!-- 7&#45;&#45;12 -->
<g id="edge9" class="edge">
<title>7&#45;&#45;12</title>
<path fill="none" stroke="grey" d="M185.62,-330.14C185.59,-340.03 185.56,-353.02 185.54,-362.89"/>
</g>
<!-- 8&#45;&#45;9 -->
<g id="edge10" class="edge">
<title>8&#45;&#45;9</title>
<path fill="none" stroke="grey" d="M225.71,-333.23C228.79,-327.32 232.41,-320.38 235.48,-314.5"/>
</g>
<!-- 8&#45;&#45;10 -->
<g id="edge11" class="edge">
<title>8&#45;&#45;10</title>
<path fill="none" stroke="grey" d="M225.6,-359.82C228.63,-365.77 232.2,-372.76 235.21,-378.68"/>
</g>
<!-- 8&#45;&#45;11 -->
<g id="edge12" class="edge">
<title>8&#45;&#45;11</title>
<path fill="none" stroke="grey" d="M233.43,-346.56C240.99,-346.61 250.18,-346.66 257.74,-346.7"/>
</g>
<!-- 8&#45;&#45;12 -->
<g id="edge13" class="edge">
<title>8&#45;&#45;12</title>
<path fill="none" stroke="grey" d="M207.89,-356.63C204.25,-360.02 200.19,-363.8 196.54,-367.21"/>
</g>
<!-- 9&#45;&#45;10 -->
<g id="edge14" class="edge">
<title>9&#45;&#45;10</title>
<path fill="none" stroke="grey" d="M242.2,-316C242.13,-332.75 242.02,-360.15 241.95,-377"/>
</g>
<!-- 9&#45;&#45;11 -->
<g id="edge15" class="edge">
<title>9&#45;&#45;11</title>
<path fill="none" stroke="grey" d="M250.48,-313.87C254.73,-320.26 259.89,-328.04 264.14,-334.43"/>
</g>
<!-- 9&#45;&#45;12 -->
<g id="edge16" class="edge">
<title>9&#45;&#45;12</title>
<path fill="none" stroke="grey" d="M233.39,-313.37C222.79,-327.57 205.15,-351.18 194.49,-365.45"/>
</g>
<!-- 10&#45;&#45;11 -->
<g id="edge17" class="edge">
<title>10&#45;&#45;11</title>
<path fill="none" stroke="grey" d="M250.21,-379.48C254.51,-373.13 259.74,-365.41 264.04,-359.06"/>
</g>
<!-- 10&#45;&#45;12 -->
<g id="edge18" class="edge">
<title>10&#45;&#45;12</title>
<path fill="none" stroke="grey" d="M227.66,-388.17C219.18,-386.02 208.44,-383.3 199.92,-381.14"/>
</g>
<!-- 11&#45;&#45;12 -->
<g id="edge19" class="edge">
<title>11&#45;&#45;12</title>
<path fill="none" stroke="grey" d="M258.4,-351.72C242.19,-357.45 215.61,-366.84 199.42,-372.57"/>
</g>
<!-- 13 -->
<g id="node14" class="node">
<title>13</title>
<ellipse fill="#ffffff" stroke="grey" cx="428.5" cy="-58.5" rx="14.5" ry="14.5"/>
<text text-anchor="middle" x="428.5" y="-54.8" font-family="Times New Roman,serif" font-size="14.00">13</text>
</g>
<!-- 14 -->
<g id="node15" class="node">
<title>14</title>
<ellipse fill="#ffba00" stroke="grey" cx="472.9" cy="-115.18" rx="14.5" ry="14.5"/>
<text text-anchor="middle" x="472.9" y="-111.48" font-family="Times New Roman,serif" font-size="14.00">14</text>
</g>
<!-- 13&#45;&#45;14 -->
<g id="edge20" class="edge">
<title>13&#45;&#45;14</title>
<path fill="none" stroke="grey" d="M437.49,-69.97C445.19,-79.8 456.23,-93.9 463.93,-103.73"/>
</g>
<!-- 15 -->
<g id="node16" class="node">
<title>15</title>
<ellipse fill="#ffffff" stroke="grey" cx="131.5" cy="-94.5" rx="14.5" ry="14.5"/>
<text text-anchor="middle" x="131.5" y="-90.8" font-family="Times New Roman,serif" font-size="14.00">15</text>
</g>
<!-- 16 -->
<g id="node17" class="node">
<title>16</title>
<ellipse fill="#ffba00" stroke="grey" cx="166.41" cy="-157.3" rx="14.5" ry="14.5"/>
<text text-anchor="middle" x="166.41" y="-153.6" font-family="Times New Roman,serif" font-size="14.00">16</text>
</g>
<!-- 15&#45;&#45;16 -->
<g id="edge21" class="edge">
<title>15&#45;&#45;16</title>
<path fill="none" stroke="grey" d="M138.56,-107.21C144.62,-118.1 153.3,-133.72 159.36,-144.61"/>
</g>
<!-- 17 -->
<g id="node18" class="node">
<title>17</title>
<ellipse fill="#5cff00" stroke="grey" cx="203.7" cy="-95.78" rx="14.5" ry="14.5"/>
<text text-anchor="middle" x="203.7" y="-92.08" font-family="Times New Roman,serif" font-size="14.00">17</text>
</g>
<!-- 15&#45;&#45;17 -->
<g id="edge22" class="edge">
<title>15&#45;&#45;17</title>
<path fill="none" stroke="grey" d="M146.11,-94.76C158.64,-94.98 176.59,-95.3 189.11,-95.52"/>
</g>
<!-- 16&#45;&#45;17 -->
<g id="edge23" class="edge">
<title>16&#45;&#45;17</title>
<path fill="none" stroke="grey" d="M173.96,-144.85C180.42,-134.18 189.7,-118.88 196.16,-108.21"/>
</g>
<!-- 18 -->
<g id="node19" class="node">
<title>18</title>
<ellipse fill="#ffffff" stroke="grey" cx="32.5" cy="-67.5" rx="14.5" ry="14.5"/>
<text text-anchor="middle" x="32.5" y="-63.8" font-family="Times New Roman,serif" font-size="14.00">18</text>
</g>
<!-- 19 -->
<g id="node20" class="node">
<title>19</title>
<ellipse fill="#ffba00" stroke="grey" cx="76.9" cy="-124.18" rx="14.5" ry="14.5"/>
<text text-anchor="middle" x="76.9" y="-120.48" font-family="Times New Roman,serif" font-size="14.00">19</text>
</g>
<!-- 18&#45;&#45;19 -->
<g id="edge24" class="edge">
<title>18&#45;&#45;19</title>
<path fill="none" stroke="grey" d="M41.49,-78.97C49.19,-88.8 60.23,-102.9 67.93,-112.73"/>
</g>
<!-- 20 -->
<g id="node21" class="node">
<title>20</title>
<ellipse fill="#ffffff" stroke="grey" cx="347.5" cy="-112.5" rx="14.5" ry="14.5"/>
<text text-anchor="middle" x="347.5" y="-108.8" font-family="Times New Roman,serif" font-size="14.00">20</text>
</g>
<!-- 21 -->
<g id="node22" class="node">
<title>21</title>
<ellipse fill="#ffba00" stroke="grey" cx="382.41" cy="-175.3" rx="14.5" ry="14.5"/>
<text text-anchor="middle" x="382.41" y="-171.6" font-family="Times New Roman,serif" font-size="14.00">21</text>
</g>
<!-- 20&#45;&#45;21 -->
<g id="edge25" class="edge">
<title>20&#45;&#45;21</title>
<path fill="none" stroke="grey" d="M354.56,-125.21C360.62,-136.1 369.3,-151.72 375.36,-162.61"/>
</g>
<!-- 22 -->
<g id="node23" class="node">
<title>22</title>
<ellipse fill="#5cff00" stroke="grey" cx="419.7" cy="-113.78" rx="14.5" ry="14.5"/>
<text text-anchor="middle" x="419.7" y="-110.08" font-family="Times New Roman,serif" font-size="14.00">22</text>
</g>
<!-- 20&#45;&#45;22 -->
<g id="edge26" class="edge">
<title>20&#45;&#45;22</title>
<path fill="none" stroke="grey" d="M362.11,-112.76C374.64,-112.98 392.59,-113.3 405.11,-113.52"/>
</g>
<!-- 21&#45;&#45;22 -->
<g id="edge27" class="edge">
<title>21&#45;&#45;22</title>
<path fill="none" stroke="grey" d="M389.96,-162.85C396.42,-152.18 405.7,-136.88 412.16,-126.21"/>
</g>
<!-- 23 -->
<g id="node24" class="node">
<title>23</title>
<ellipse fill="#ffffff" stroke="grey" cx="86.5" cy="-256.5" rx="14.5" ry="14.5"/>
<text text-anchor="middle" x="86.5" y="-252.8" font-family="Times New Roman,serif" font-size="14.00">23</text>
</g>
<!-- 24 -->
<g id="node25" class="node">
<title>24</title>
<ellipse fill="#ffba00" stroke="grey" cx="130.9" cy="-313.18" rx="14.5" ry="14.5"/>
<text text-anchor="middle" x="130.9" y="-309.48" font-family="Times New Roman,serif" font-size="14.00">24</text>
</g>
<!-- 23&#45;&#45;24 -->
<g id="edge28" class="edge">
<title>23&#45;&#45;24</title>
<path fill="none" stroke="grey" d="M95.49,-267.97C103.19,-277.8 114.23,-291.9 121.93,-301.73"/>
</g>
<!-- 25 -->
<g id="node26" class="node">
<title>25</title>
<ellipse fill="#ffffff" stroke="grey" cx="23.5" cy="-310.5" rx="14.5" ry="14.5"/>
<text text-anchor="middle" x="23.5" y="-306.8" font-family="Times New Roman,serif" font-size="14.00">25</text>
</g>
<!-- 26 -->
<g id="node27" class="node">
<title>26</title>
<ellipse fill="#ffffff" stroke="grey" cx="32.5" cy="-256.5" rx="14.5" ry="14.5"/>
<text text-anchor="middle" x="32.5" y="-252.8" font-family="Times New Roman,serif" font-size="14.00">26</text>
</g>
<!-- 27 -->
<g id="node28" class="node">
<title>27</title>
<ellipse fill="#ffffff" stroke="grey" cx="401.5" cy="-409.5" rx="14.5" ry="14.5"/>
<text text-anchor="middle" x="401.5" y="-405.8" font-family="Times New Roman,serif" font-size="14.00">27</text>
</g>
<!-- 28 -->
<g id="node29" class="node">
<title>28</title>
<ellipse fill="#ffba00" stroke="grey" cx="445.9" cy="-466.18" rx="14.5" ry="14.5"/>
<text text-anchor="middle" x="445.9" y="-462.48" font-family="Times New Roman,serif" font-size="14.00">28</text>
</g>
<!-- 27&#45;&#45;28 -->
<g id="edge29" class="edge">
<title>27&#45;&#45;28</title>
<path fill="none" stroke="grey" d="M410.49,-420.97C418.19,-430.8 429.23,-444.9 436.93,-454.73"/>
</g>
<!-- 29 -->
<g id="node30" class="node">
<title>29</title>
<ellipse fill="#ffffff" stroke="grey" cx="185.5" cy="-427.5" rx="14.5" ry="14.5"/>
<text text-anchor="middle" x="185.5" y="-423.8" font-family="Times New Roman,serif" font-size="14.00">29</text>
</g>
<!-- 30 -->
<g id="node31" class="node">
<title>30</title>
<ellipse fill="#ffba00" stroke="grey" cx="229.9" cy="-484.18" rx="14.5" ry="14.5"/>
<text text-anchor="middle" x="229.9" y="-480.48" font-family="Times New Roman,serif" font-size="14.00">30</text>
</g>
<!-- 29&#45;&#45;30 -->
<g id="edge30" class="edge">
<title>29&#45;&#45;30</title>
<path fill="none" stroke="grey" d="M194.49,-438.97C202.19,-448.8 213.23,-462.9 220.93,-472.73"/>
</g>
<!-- 31 -->
<g id="node32" class="node">
<title>31</title>
<ellipse fill="#ffffff" stroke="grey" cx="311.5" cy="-58.5" rx="14.5" ry="14.5"/>
<text text-anchor="middle" x="311.5" y="-54.8" font-family="Times New Roman,serif" font-size="14.00">31</text>
</g>
<!-- 32 -->
<g id="node33" class="node">
<title>32</title>
<ellipse fill="#ffffff" stroke="grey" cx="59.5" cy="-202.5" rx="14.5" ry="14.5"/>
<text text-anchor="middle" x="59.5" y="-198.8" font-family="Times New Roman,serif" font-size="14.00">32</text>
</g>
<!-- 33 -->
<g id="node34" class="node">
<title>33</title>
<ellipse fill="#ffffff" stroke="grey" cx="140.5" cy="-40.5" rx="14.5" ry="14.5"/>
<text text-anchor="middle" x="140.5" y="-36.8" font-family="Times New Roman,serif" font-size="14.00">33</text>
</g>
<!-- 34 -->
<g id="node35" class="node">
<title>34</title>
<ellipse fill="#ffffff" stroke="grey" cx="257.5" cy="-121.5" rx="14.5" ry="14.5"/>
<text text-anchor="middle" x="257.5" y="-117.8" font-family="Times New Roman,serif" font-size="14.00">34</text>
</g>
<!-- 35 -->
<g id="node36" class="node">
<title>35</title>
<ellipse fill="#ffffff" stroke="grey" cx="347.5" cy="-229.5" rx="14.5" ry="14.5"/>
<text text-anchor="middle" x="347.5" y="-225.8" font-family="Times New Roman,serif" font-size="14.00">35</text>
</g>
<!-- 36 -->
<g id="node37" class="node">
<title>36</title>
<ellipse fill="#ffba00" stroke="grey" cx="382.41" cy="-292.3" rx="14.5" ry="14.5"/>
<text text-anchor="middle" x="382.41" y="-288.6" font-family="Times New Roman,serif" font-size="14.00">36</text>
</g>
<!-- 35&#45;&#45;36 -->
<g id="edge31" class="edge">
<title>35&#45;&#45;36</title>
<path fill="none" stroke="grey" d="M354.56,-242.21C360.62,-253.1 369.3,-268.72 375.36,-279.61"/>
</g>
<!-- 37 -->
<g id="node38" class="node">
<title>37</title>
<ellipse fill="#5cff00" stroke="grey" cx="419.7" cy="-230.78" rx="14.5" ry="14.5"/>
<text text-anchor="middle" x="419.7" y="-227.08" font-family="Times New Roman,serif" font-size="14.00">37</text>
</g>
<!-- 35&#45;&#45;37 -->
<g id="edge32" class="edge">
<title>35&#45;&#45;37</title>
<path fill="none" stroke="grey" d="M362.11,-229.76C374.64,-229.98 392.59,-230.3 405.11,-230.52"/>
</g>
<!-- 36&#45;&#45;37 -->
<g id="edge33" class="edge">
<title>36&#45;&#45;37</title>
<path fill="none" stroke="grey" d="M389.96,-279.85C396.42,-269.18 405.7,-253.88 412.16,-243.21"/>
</g>
<!-- 38 -->
<g id="node39" class="node">
<title>38</title>
<ellipse fill="#ffffff" stroke="grey" cx="68.5" cy="-364.5" rx="14.5" ry="14.5"/>
<text text-anchor="middle" x="68.5" y="-360.8" font-family="Times New Roman,serif" font-size="14.00">38</text>
</g>
<!-- 39 -->
<g id="node40" class="node">
<title>39</title>
<ellipse fill="#ffffff" stroke="grey" cx="428.5" cy="-175.5" rx="14.5" ry="14.5"/>
<text text-anchor="middle" x="428.5" y="-171.8" font-family="Times New Roman,serif" font-size="14.00">39</text>
</g>
<!-- 40 -->
<g id="node41" class="node">
<title>40</title>
<ellipse fill="#ffba00" stroke="grey" cx="472.9" cy="-232.18" rx="14.5" ry="14.5"/>
<text text-anchor="middle" x="472.9" y="-228.48" font-family="Times New Roman,serif" font-size="14.00">40</text>
</g>
<!-- 39&#45;&#45;40 -->
<g id="edge34" class="edge">
<title>39&#45;&#45;40</title>
<path fill="none" stroke="grey" d="M437.49,-186.97C445.19,-196.8 456.23,-210.9 463.93,-220.73"/>
</g>
<!-- 41 -->
<g id="node42" class="node">
<title>41</title>
<ellipse fill="#ffffff" stroke="grey" cx="257.5" cy="-67.5" rx="14.5" ry="14.5"/>
<text text-anchor="middle" x="257.5" y="-63.8" font-family="Times New Roman,serif" font-size="14.00">41</text>
</g>
<!-- 42 -->
<g id="node43" class="node">
<title>42</title>
<ellipse fill="#ffffff" stroke="grey" cx="71.56" cy="-418.5" rx="14.5" ry="14.5"/>
<text text-anchor="middle" x="71.56" y="-414.8" font-family="Times New Roman,serif" font-size="14.00">42</text>
</g>
<!-- 43 -->
<g id="node44" class="node">
<title>43</title>
<ellipse fill="#ffba00" stroke="grey" cx="68.5" cy="-479.83" rx="14.5" ry="14.5"/>
<text text-anchor="middle" x="68.5" y="-476.13" font-family="Times New Roman,serif" font-size="14.00">43</text>
</g>
<!-- 42&#45;&#45;43 -->
<g id="edge35" class="edge">
<title>42&#45;&#45;43</title>
<path fill="none" stroke="grey" d="M70.84,-433.03C70.36,-442.67 69.73,-455.27 69.24,-464.97"/>
</g>
<!-- 44 -->
<g id="node45" class="node">
<title>44</title>
<ellipse fill="#5cff00" stroke="grey" cx="132.99" cy="-421.64" rx="14.5" ry="14.5"/>
<text text-anchor="middle" x="132.99" y="-417.94" font-family="Times New Roman,serif" font-size="14.00">44</text>
</g>
<!-- 42&#45;&#45;44 -->
<g id="edge36" class="edge">
<title>42&#45;&#45;44</title>
<path fill="none" stroke="grey" d="M86.12,-419.24C95.77,-419.74 108.4,-420.38 118.11,-420.88"/>
</g>
<!-- 45 -->
<g id="node46" class="node">
<title>45</title>
<ellipse fill="#00ff8c" stroke="grey" cx="129.81" cy="-483.06" rx="14.5" ry="14.5"/>
<text text-anchor="middle" x="129.81" y="-479.36" font-family="Times New Roman,serif" font-size="14.00">45</text>
</g>
<!-- 42&#45;&#45;45 -->
<g id="edge37" class="edge">
<title>42&#45;&#45;45</title>
<path fill="none" stroke="grey" d="M81.44,-429.45C92.22,-441.4 109.36,-460.39 120.08,-472.27"/>
</g>
<!-- 43&#45;&#45;44 -->
<g id="edge38" class="edge">
<title>43&#45;&#45;44</title>
<path fill="none" stroke="grey" d="M79.44,-469.96C91.37,-459.19 110.35,-442.07 122.22,-431.36"/>
</g>
<!-- 43&#45;&#45;45 -->
<g id="edge39" class="edge">
<title>43&#45;&#45;45</title>
<path fill="none" stroke="grey" d="M83.03,-480.59C92.66,-481.1 105.26,-481.77 114.96,-482.28"/>
</g>
<!-- 44&#45;&#45;45 -->
<g id="edge40" class="edge">
<title>44&#45;&#45;45</title>
<path fill="none" stroke="grey" d="M132.24,-436.2C131.74,-445.85 131.09,-458.47 130.58,-468.18"/>
</g>
<!-- 46 -->
<g id="node47" class="node">
<title>46</title>
<ellipse fill="#ffffff" stroke="grey" cx="365.5" cy="-58.5" rx="14.5" ry="14.5"/>
<text text-anchor="middle" x="365.5" y="-54.8" font-family="Times New Roman,serif" font-size="14.00">46</text>
</g>
<!-- 47 -->
<g id="node48" class="node">
<title>47</title>
<ellipse fill="#ffffff" stroke="grey" cx="77.5" cy="-310.5" rx="14.5" ry="14.5"/>
<text text-anchor="middle" x="77.5" y="-306.8" font-family="Times New Roman,serif" font-size="14.00">47</text>
</g>
<!-- 48 -->
<g id="node49" class="node">
<title>48</title>
<ellipse fill="#ffba00" stroke="grey" cx="121.9" cy="-367.18" rx="14.5" ry="14.5"/>
<text text-anchor="middle" x="121.9" y="-363.48" font-family="Times New Roman,serif" font-size="14.00">48</text>
</g>
<!-- 47&#45;&#45;48 -->
<g id="edge41" class="edge">
<title>47&#45;&#45;48</title>
<path fill="none" stroke="grey" d="M86.49,-321.97C94.19,-331.8 105.23,-345.9 112.93,-355.73"/>
</g>
<!-- 49 -->
<g id="node50" class="node">
<title>49</title>
<ellipse fill="#ffffff" stroke="grey" cx="302.5" cy="-409.5" rx="14.5" ry="14.5"/>
<text text-anchor="middle" x="302.5" y="-405.8" font-family="Times New Roman,serif" font-size="14.00">49</text>
</g>
<!-- 50 -->
<g id="node51" class="node">
<title>50</title>
<ellipse fill="#ffba00" stroke="grey" cx="346.9" cy="-466.18" rx="14.5" ry="14.5"/>
<text text-anchor="middle" x="346.9" y="-462.48" font-family="Times New Roman,serif" font-size="14.00">50</text>
</g>
<!-- 49&#45;&#45;50 -->
<g id="edge42" class="edge">
<title>49&#45;&#45;50</title>
<path fill="none" stroke="grey" d="M311.49,-420.97C319.19,-430.8 330.23,-444.9 337.93,-454.73"/>
</g>
<!-- 51 -->
<g id="node52" class="node">
<title>51</title>
<ellipse fill="#ffffff" stroke="grey" cx="113.5" cy="-175.5" rx="14.5" ry="14.5"/>
<text text-anchor="middle" x="113.5" y="-171.8" font-family="Times New Roman,serif" font-size="14.00">51</text>
</g>
<!-- 52 -->
<g id="node53" class="node">
<title>52</title>
<ellipse fill="#ffba00" stroke="grey" cx="174.18" cy="-214.4" rx="14.5" ry="14.5"/>
<text text-anchor="middle" x="174.18" y="-210.7" font-family="Times New Roman,serif" font-size="14.00">52</text>
</g>
<!-- 51&#45;&#45;52 -->
<g id="edge43" class="edge">
<title>51&#45;&#45;52</title>
<path fill="none" stroke="grey" d="M125.78,-183.37C136.31,-190.12 151.4,-199.79 161.92,-206.54"/>
</g>
<!-- 53 -->
<g id="node54" class="node">
<title>53</title>
<ellipse fill="#ffffff" stroke="grey" cx="239.86" cy="-244.67" rx="14.5" ry="14.5"/>
<text text-anchor="middle" x="239.86" y="-240.97" font-family="Times New Roman,serif" font-size="14.00">53</text>
</g>
<!-- 52&#45;&#45;53 -->
<g id="edge44" class="edge">
<title>52&#45;&#45;53</title>
<path fill="none" stroke="grey" d="M187.47,-220.52C198.87,-225.78 215.2,-233.31 226.59,-238.56"/>
</g>
<!-- 54 -->
<g id="node55" class="node">
<title>54</title>
<ellipse fill="#ffba00" stroke="grey" cx="293.58" cy="-293.09" rx="14.5" ry="14.5"/>
<text text-anchor="middle" x="293.58" y="-289.39" font-family="Times New Roman,serif" font-size="14.00">54</text>
</g>
<!-- 53&#45;&#45;54 -->
<g id="edge45" class="edge">
<title>53&#45;&#45;54</title>
<path fill="none" stroke="grey" d="M250.73,-254.47C260.05,-262.87 273.41,-274.91 282.73,-283.31"/>
</g>
<!-- 55 -->
<g id="node56" class="node">
<title>55</title>
<ellipse fill="#ffffff" stroke="grey" cx="14.5" cy="-472.5" rx="14.5" ry="14.5"/>
<text text-anchor="middle" x="14.5" y="-468.8" font-family="Times New Roman,serif" font-size="14.00">55</text>
</g>
<!-- 56 -->
<g id="node57" class="node">
<title>56</title>
<ellipse fill="#ffffff" stroke="grey" cx="320.5" cy="-346.5" rx="14.5" ry="14.5"/>
<text text-anchor="middle" x="320.5" y="-342.8" font-family="Times New Roman,serif" font-size="14.00">56</text>
</g>
<!-- 57 -->
<g id="node58" class="node">
<title>57</title>
<ellipse fill="#ffba00" stroke="grey" cx="355.41" cy="-409.3" rx="14.5" ry="14.5"/>
<text text-anchor="middle" x="355.41" y="-405.6" font-family="Times New Roman,serif" font-size="14.00">57</text>
</g>
<!-- 56&#45;&#45;57 -->
<g id="edge46" class="edge">
<title>56&#45;&#45;57</title>
<path fill="none" stroke="grey" d="M327.56,-359.21C333.62,-370.1 342.3,-385.72 348.36,-396.61"/>
</g>
<!-- 58 -->
<g id="node59" class="node">
<title>58</title>
<ellipse fill="#5cff00" stroke="grey" cx="392.7" cy="-347.78" rx="14.5" ry="14.5"/>
<text text-anchor="middle" x="392.7" y="-344.08" font-family="Times New Roman,serif" font-size="14.00">58</text>
</g>
<!-- 56&#45;&#45;58 -->
<g id="edge47" class="edge">
<title>56&#45;&#45;58</title>
<path fill="none" stroke="grey" d="M335.11,-346.76C347.64,-346.98 365.59,-347.3 378.11,-347.52"/>
</g>
<!-- 57&#45;&#45;58 -->
<g id="edge48" class="edge">
<title>57&#45;&#45;58</title>
<path fill="none" stroke="grey" d="M362.96,-396.85C369.42,-386.18 378.7,-370.88 385.16,-360.21"/>
</g>
<!-- 59 -->
<g id="node60" class="node">
<title>59</title>
<ellipse fill="#ffffff" stroke="grey" cx="14.5" cy="-364.5" rx="14.5" ry="14.5"/>
<text text-anchor="middle" x="14.5" y="-360.8" font-family="Times New Roman,serif" font-size="14.00">59</text>
</g>
<!-- 60 -->
<g id="node61" class="node">
<title>60</title>
<ellipse fill="#ffffff" stroke="grey" cx="86.5" cy="-40.5" rx="14.5" ry="14.5"/>
<text text-anchor="middle" x="86.5" y="-36.8" font-family="Times New Roman,serif" font-size="14.00">60</text>
</g>
<!-- 61 -->
<g id="node62" class="node">
<title>61</title>
<ellipse fill="#ffffff" stroke="grey" cx="428.5" cy="-292.5" rx="14.5" ry="14.5"/>
<text text-anchor="middle" x="428.5" y="-288.8" font-family="Times New Roman,serif" font-size="14.00">61</text>
</g>
<!-- 62 -->
<g id="node63" class="node">
<title>62</title>
<ellipse fill="#ffba00" stroke="grey" cx="472.9" cy="-349.18" rx="14.5" ry="14.5"/>
<text text-anchor="middle" x="472.9" y="-345.48" font-family="Times New Roman,serif" font-size="14.00">62</text>
</g>
<!-- 61&#45;&#45;62 -->
<g id="edge49" class="edge">
<title>61&#45;&#45;62</title>
<path fill="none" stroke="grey" d="M437.49,-303.97C445.19,-313.8 456.23,-327.9 463.93,-337.73"/>
</g>
</g>
</svg>
