<?xml version="1.0" encoding="UTF-8" standalone="no"?>
<!DOCTYPE svg PUBLIC "-//W3C//DTD SVG 1.1//EN"
 "http://www.w3.org/Graphics/SVG/1.1/DTD/svg11.dtd">
<!-- Generated by graphviz version 3.0.0 (20220226.1711)
 -->
<!-- Title: Terminal 4 Pages: 1 -->
<svg width="298pt" height="323pt"
 viewBox="0.00 0.00 298.40 322.68" xmlns="http://www.w3.org/2000/svg" xmlns:xlink="http://www.w3.org/1999/xlink">
<g id="graph0" class="graph" transform="scale(1 1) rotate(0) translate(4 318.68)">
<title>Terminal 4</title>
<polygon fill="transparent" stroke="transparent" points="-4,4 -4,-318.68 294.4,-318.68 294.4,4 -4,4"/>
<text text-anchor="middle" x="145.2" y="-9.2" font-family="Times New Roman,serif" font-size="16.00" fill="grey">Terminal 4</text>
<!-- 0 -->
<g id="node1" class="node">
<title>0</title>
<ellipse fill="#ffffff" stroke="grey" cx="63.5" cy="-40.5" rx="14.5" ry="14.5"/>
<text text-anchor="middle" x="63.5" y="-36.8" font-family="Times New Roman,serif" font-size="14.00">0</text>
</g>
<!-- 1 -->
<g id="node2" class="node">
<title>1</title>
<ellipse fill="#ffffff" stroke="grey" cx="14.5" cy="-89.5" rx="14.5" ry="14.5"/>
<text text-anchor="middle" x="14.5" y="-85.8" font-family="Times New Roman,serif" font-size="14.00">1</text>
</g>
<!-- 2 -->
<g id="node3" class="node">
<title>2</title>
<ellipse fill="#ffffff" stroke="grey" cx="14.5" cy="-187.5" rx="14.5" ry="14.5"/>
<text text-anchor="middle" x="14.5" y="-183.8" font-family="Times New Roman,serif" font-size="14.00">2</text>
</g>
<!-- 3 -->
<g id="node4" class="node">
<title>3</title>
<ellipse fill="#ffffff" stroke="grey" cx="49.5" cy="-138.5" rx="14.5" ry="14.5"/>
<text text-anchor="middle" x="49.5" y="-134.8" font-family="Times New Roman,serif" font-size="14.00">3</text>
</g>
<!-- 4 -->
<g id="node5" class="node">
<title>4</title>
<ellipse fill="#00ff8c" stroke="grey" cx="120.5" cy="-151.9" rx="14.5" ry="14.5"/>
<text text-anchor="middle" x="120.5" y="-148.2" font-family="Times New Roman,serif" font-size="14.00">4</text>
</g>
<!-- 3&#45;&#45;4 -->
<g id="edge1" class="edge">
<title>3&#45;&#45;4</title>
<path fill="none" stroke="grey" d="M63.87,-141.21C76.19,-143.54 93.84,-146.87 106.15,-149.19"/>
</g>
<!-- 5 -->
<g id="node6" class="node">
<title>5</title>
<ellipse fill="#ffffff" stroke="grey" cx="192.2" cy="-142.98" rx="14.5" ry="14.5"/>
<text text-anchor="middle" x="192.2" y="-139.28" font-family="Times New Roman,serif" font-size="14.00">5</text>
</g>
<!-- 4&#45;&#45;5 -->
<g id="edge2" class="edge">
<title>4&#45;&#45;5</title>
<path fill="none" stroke="grey" d="M135.01,-150.09C147.45,-148.54 165.28,-146.33 177.71,-144.78"/>
</g>
<!-- 6 -->
<g id="node7" class="node">
<title>6</title>
<ellipse fill="#ffffff" stroke="grey" cx="63.5" cy="-243.5" rx="14.5" ry="14.5"/>
<text text-anchor="middle" x="63.5" y="-239.8" font-family="Times New Roman,serif" font-size="14.00">6</text>
</g>
<!-- 7 -->
<g id="node8" class="node">
<title>7</title>
<ellipse fill="#00ff8c" stroke="grey" cx="107.9" cy="-300.18" rx="14.5" ry="14.5"/>
<text text-anchor="middle" x="107.9" y="-296.48" font-family="Times New Roman,serif" font-size="14.00">7</text>
</g>
<!-- 6&#45;&#45;7 -->
<g id="edge3" class="edge">
<title>6&#45;&#45;7</title>
<path fill="none" stroke="grey" d="M72.49,-254.97C80.19,-264.8 91.23,-278.9 98.93,-288.73"/>
</g>
<!-- 8 -->
<g id="node9" class="node">
<title>8</title>
<ellipse fill="#ffffff" stroke="grey" cx="63.5" cy="-187.5" rx="14.5" ry="14.5"/>
<text text-anchor="middle" x="63.5" y="-183.8" font-family="Times New Roman,serif" font-size="14.00">8</text>
</g>
<!-- 9 -->
<g id="node10" class="node">
<title>9</title>
<ellipse fill="#ffffff" stroke="grey" cx="140.5" cy="-96.5" rx="14.5" ry="14.5"/>
<text text-anchor="middle" x="140.5" y="-92.8" font-family="Times New Roman,serif" font-size="14.00">9</text>
</g>
<!-- 10 -->
<g id="node11" class="node">
<title>10</title>
<ellipse fill="#ffffff" stroke="grey" cx="14.5" cy="-40.5" rx="14.5" ry="14.5"/>
<text text-anchor="middle" x="14.5" y="-36.8" font-family="Times New Roman,serif" font-size="14.00">10</text>
</g>
<!-- 11 -->
<g id="node12" class="node">
<title>11</title>
<ellipse fill="#ffffff" stroke="grey" cx="63.5" cy="-89.5" rx="14.5" ry="14.5"/>
<text text-anchor="middle" x="63.5" y="-85.8" font-family="Times New Roman,serif" font-size="14.00">11</text>
</g>
<!-- 12 -->
<g id="node13" class="node">
<title>12</title>
<ellipse fill="#ffffff" stroke="grey" cx="245.5" cy="-61.5" rx="14.5" ry="14.5"/>
<text text-anchor="middle" x="245.5" y="-57.8" font-family="Times New Roman,serif" font-size="14.00">12</text>
</g>
<!-- 13 -->
<g id="node14" class="node">
<title>13</title>
<ellipse fill="#ffffff" stroke="grey" cx="140.5" cy="-47.5" rx="14.5" ry="14.5"/>
<text text-anchor="middle" x="140.5" y="-43.8" font-family="Times New Roman,serif" font-size="14.00">13</text>
</g>
<!-- 14 -->
<g id="node15" class="node">
<title>14</title>
<ellipse fill="#ffffff" stroke="grey" cx="56.5" cy="-292.5" rx="14.5" ry="14.5"/>
<text text-anchor="middle" x="56.5" y="-288.8" font-family="Times New Roman,serif" font-size="14.00">14</text>
</g>
<!-- 15 -->
<g id="node16" class="node">
<title>15</title>
<ellipse fill="#ffffff" stroke="grey" cx="175.5" cy="-194.5" rx="14.5" ry="14.5"/>
<text text-anchor="middle" x="175.5" y="-190.8" font-family="Times New Roman,serif" font-size="14.00">15</text>
</g>
<!-- 16 -->
<g id="node17" class="node">
<title>16</title>
<ellipse fill="#00ff8c" stroke="grey" cx="219.9" cy="-251.18" rx="14.5" ry="14.5"/>
<text text-anchor="middle" x="219.9" y="-247.48" font-family="Times New Roman,serif" font-size="14.00">16</text>
</g>
<!-- 15&#45;&#45;16 -->
<g id="edge4" class="edge">
<title>15&#45;&#45;16</title>
<path fill="none" stroke="grey" d="M184.49,-205.97C192.19,-215.8 203.23,-229.9 210.93,-239.73"/>
</g>
<!-- 17 -->
<g id="node18" class="node">
<title>17</title>
<ellipse fill="#ffffff" stroke="grey" cx="119.5" cy="-208.5" rx="14.5" ry="14.5"/>
<text text-anchor="middle" x="119.5" y="-204.8" font-family="Times New Roman,serif" font-size="14.00">17</text>
</g>
<!-- 18 -->
<g id="node19" class="node">
<title>18</title>
<ellipse fill="#00ff8c" stroke="grey" cx="163.9" cy="-265.18" rx="14.5" ry="14.5"/>
<text text-anchor="middle" x="163.9" y="-261.48" font-family="Times New Roman,serif" font-size="14.00">18</text>
</g>
<!-- 17&#45;&#45;18 -->
<g id="edge5" class="edge">
<title>17&#45;&#45;18</title>
<path fill="none" stroke="grey" d="M128.49,-219.97C136.19,-229.8 147.23,-243.9 154.93,-253.73"/>
</g>
<!-- 19 -->
<g id="node20" class="node">
<title>19</title>
<ellipse fill="#ffffff" stroke="grey" cx="231.5" cy="-201.5" rx="14.5" ry="14.5"/>
<text text-anchor="middle" x="231.5" y="-197.8" font-family="Times New Roman,serif" font-size="14.00">19</text>
</g>
<!-- 20 -->
<g id="node21" class="node">
<title>20</title>
<ellipse fill="#00ff8c" stroke="grey" cx="275.9" cy="-258.18" rx="14.5" ry="14.5"/>
<text text-anchor="middle" x="275.9" y="-254.48" font-family="Times New Roman,serif" font-size="14.00">20</text>
</g>
<!-- 19&#45;&#45;20 -->
<g id="edge6" class="edge">
<title>19&#45;&#45;20</title>
<path fill="none" stroke="grey" d="M240.49,-212.97C248.19,-222.8 259.23,-236.9 266.93,-246.73"/>
</g>
<!-- 21 -->
<g id="node22" class="node">
<title>21</title>
<ellipse fill="#ffffff" stroke="grey" cx="196.5" cy="-89.5" rx="14.5" ry="14.5"/>
<text text-anchor="middle" x="196.5" y="-85.8" font-family="Times New Roman,serif" font-size="14.00">21</text>
</g>
<!-- 22 -->
<g id="node23" class="node">
<title>22</title>
<ellipse fill="#00ff8c" stroke="grey" cx="240.9" cy="-146.18" rx="14.5" ry="14.5"/>
<text text-anchor="middle" x="240.9" y="-142.48" font-family="Times New Roman,serif" font-size="14.00">22</text>
</g>
<!-- 21&#45;&#45;22 -->
<g id="edge7" class="edge">
<title>21&#45;&#45;22</title>
<path fill="none" stroke="grey" d="M205.49,-100.97C213.19,-110.8 224.23,-124.9 231.93,-134.73"/>
</g>
</g>
</svg>
